<svg width="32" height="32" viewBox="0 0 32 32" fill="none" xmlns="http://www.w3.org/2000/svg">
<g clip-path="url(#clip0_104_2)">
<circle cx="16" cy="16" r="13" fill="#EEEEEE" fill-opacity="0.7"/>
<g clip-path="url(#clip1_104_2)">
<path d="M29.65 0.112527C29.2438 0.256277 27.4938 1.55003 24.9688 3.55628C22.4813 5.53753 20.65 7.12503 17.7375 9.80628C17.2313 10.2688 17.2688 10.325 17.2313 8.93753C17.2063 8.15628 17.175 7.88128 17.0625 7.53128C16.5625 5.95628 15.3875 4.80003 13.875 4.39378C12.3125 3.98128 9.13751 4.76253 6.84376 6.13128C4.47501 7.54378 2.66251 9.51878 1.43751 12.0313C0.737507 13.4563 0.337507 14.7625 0.112507 16.3438C-0.00624334 17.1938 0.0125067 19.3125 0.143757 20.1563C0.681257 23.4563 2.17501 26.2438 4.55626 28.3938C6.78126 30.4063 9.43126 31.5875 12.5 31.9438C13.4188 32.05 15.2563 31.9875 16.2188 31.8188C20.4063 31.0813 23.9438 28.575 26.0313 24.875C27.2813 22.6625 28.0063 19.5313 27.6 18.0625C27.2813 16.9 26.4063 15.8375 25.3125 15.2938C24.475 14.8813 24.1375 14.8 22.9688 14.7688C22.4188 14.75 21.9375 14.7188 21.9 14.6938C21.8563 14.675 22.275 14.175 22.9125 13.475C25.6813 10.475 28.1938 7.45628 30.65 4.18753C31.875 2.55003 32.0313 2.25628 31.9813 1.68128C31.875 0.493777 30.7313 -0.274973 29.65 0.112527ZM30.5313 1.16253C30.7938 1.28753 30.9625 1.61878 30.9125 1.90628C30.8563 2.20628 28.45 5.38128 26.4438 7.81253C24.4 10.2875 21.175 13.8625 20.0563 14.9C19.5688 15.35 19.0188 15.6563 18.5813 15.725L18.3 15.7688L17.2688 14.7438L16.2438 13.7188L16.275 13.4375C16.3313 13.0063 16.6438 12.4313 17.1063 11.9438C17.55 11.4563 19.5813 9.55003 20.9063 8.36878C23.3188 6.21878 26.275 3.81253 29.0125 1.78128C30.0313 1.02503 30.1438 0.975027 30.5313 1.16253ZM13.8813 5.52503C14.9563 5.90003 15.7625 6.80003 16.0625 7.96878C16.1563 8.32503 16.1875 8.66253 16.1875 9.21878C16.1875 9.63753 16.2313 10.2375 16.2875 10.55L16.3875 11.125L16.1 11.4438C15.7688 11.8125 15.4125 12.5063 15.2938 12.9875C15.2313 13.2563 15.1938 13.325 15.0625 13.3563C14.8625 13.4063 13.7625 14.475 13.6563 14.725C13.5813 14.9063 13.55 14.9188 13.1688 14.9625C12.6625 15.0125 12.1 15.1938 11.5313 15.4875C10.6875 15.925 9.65001 17.125 9.00001 18.425C8.58751 19.2625 8.12501 20.7938 8.12501 21.3438C8.12501 21.4875 8.10626 21.5 7.82501 21.5C6.82501 21.5 5.88751 22.1 5.43126 23.0375C5.23126 23.45 5.21876 23.5 5.21876 24.1563C5.21876 24.8313 5.22501 24.8625 5.45001 25.3188C5.73751 25.9 6.15001 26.3063 6.73751 26.5813C7.13126 26.7688 7.20001 26.7813 7.84376 26.7813C8.48751 26.7813 8.55626 26.7688 8.95001 26.5813C9.85626 26.1563 10.4188 25.35 10.4813 24.3813C10.5188 23.9 10.525 23.875 10.6688 23.875C11.2063 23.875 12.7438 23.4125 13.575 23C14.875 22.35 16.075 21.3125 16.5125 20.4688C16.8063 19.9 16.9875 19.3375 17.0375 18.8313C17.075 18.4625 17.0938 18.425 17.275 18.3313C17.5625 18.1938 18.55 17.1875 18.625 16.9688C18.6813 16.8063 18.7375 16.7688 19.0125 16.7C19.4875 16.5938 20.1688 16.2375 20.55 15.9L20.875 15.6125L21.425 15.7125C21.7375 15.7688 22.3 15.8125 22.7563 15.8125C24.0875 15.8125 24.9188 16.1125 25.6938 16.875C26.2125 17.3875 26.5313 18.0063 26.6313 18.6938C26.6875 19.0813 26.6813 19.3 26.6 19.8813C25.9875 24.1188 23.425 27.6938 19.6438 29.5875C17.7813 30.5188 15.975 30.9375 13.8563 30.9375C10.425 30.9313 7.28751 29.6313 4.85001 27.2063C2.51251 24.8813 1.21876 21.9 1.08126 18.5313C0.912507 14.3125 2.88751 10.2813 6.37501 7.71253C7.77501 6.68128 9.61251 5.87503 11.3438 5.53128C12.6125 5.28128 13.175 5.28128 13.8813 5.52503ZM17.25 16.9688L16.875 17.3438L15.7688 16.2375L14.6563 15.125L15.0313 14.75L15.4063 14.375L16.5125 15.4813L17.625 16.5938L17.25 16.9688ZM15.0125 16.9813L16 17.9688V18.375C16 19.4563 15.4188 20.4875 14.3563 21.2813C13.8375 21.675 13.2188 22.025 12.675 22.2438C11.75 22.6125 11.7563 22.6063 12.8438 21.5125C13.7625 20.5813 13.8375 20.4875 13.8375 20.275C13.8375 19.9875 13.5938 19.75 13.2938 19.75C13.125 19.75 12.9125 19.9313 11.5313 21.3125L9.96251 22.8813L9.50001 22.9188L9.04376 22.9563L9.07501 22.5063L9.10626 22.05L10.6813 20.475C12.0938 19.0563 12.25 18.8813 12.25 18.6938C12.25 18.55 12.1938 18.4375 12.0625 18.3C11.7375 17.9813 11.6125 18.05 10.475 19.175C9.38126 20.2563 9.37501 20.2563 9.78126 19.2563C10.275 18.05 11.3125 16.7813 12.1313 16.3813C12.6875 16.1125 13.0688 16.0125 13.5938 16.0063L14.0313 16L15.0125 16.9813ZM8.01251 22.9688C8.05626 23.625 8.37501 23.9438 9.03126 23.9875L9.43751 24.0125V24.275C9.43751 24.6188 9.18126 25.1313 8.88751 25.375C8.39376 25.7813 7.66876 25.8563 7.08751 25.55C5.88126 24.925 6.01251 23.1313 7.30001 22.6563C7.42501 22.6125 7.63126 22.5688 7.75626 22.5688L7.98751 22.5625L8.01251 22.9688Z" fill="black"/>
<path d="M7.91869 8.81885C7.21869 8.98135 6.54994 9.5376 6.20619 10.2314C5.99994 10.6501 5.96869 10.7689 5.94994 11.2751C5.93119 11.7376 5.94994 11.9189 6.06244 12.2439C6.53119 13.6314 7.96244 14.3689 9.36244 13.9439C10.3999 13.6314 11.1374 12.7064 11.2312 11.6251C11.3374 10.3876 10.5624 9.2376 9.38119 8.86885C8.96869 8.74385 8.33744 8.71885 7.91869 8.81885ZM9.25619 9.9626C9.54994 10.1001 9.84994 10.4001 10.0187 10.7126C10.2312 11.1126 10.2062 11.7439 9.97494 12.1751C9.67494 12.7126 9.17494 13.0001 8.53744 13.0001C8.16244 13.0001 7.67494 12.7939 7.42494 12.5251C6.64994 11.6939 6.98119 10.2939 8.03744 9.9001C8.34994 9.7876 8.96244 9.81885 9.25619 9.9626Z" fill="black"/>
<path d="M4.84381 15.0001C4.16256 15.1376 3.41881 15.6564 3.08131 16.2376C2.11256 17.8939 3.05631 19.9189 4.95631 20.2501C6.06881 20.4439 7.24381 19.8189 7.76881 18.7564C7.95631 18.3626 7.96881 18.3064 7.96881 17.6251C7.96881 16.9376 7.96256 16.8876 7.76256 16.4814C7.21881 15.3751 6.01881 14.7689 4.84381 15.0001ZM6.06256 16.1876C6.63131 16.4751 6.93756 16.9814 6.93756 17.6251C6.93756 18.5501 6.26256 19.2189 5.34381 19.2126C4.90631 19.2064 4.61256 19.0939 4.28756 18.8126C3.91881 18.4814 3.78131 18.1751 3.78131 17.6251C3.78131 17.0626 3.91881 16.7564 4.32506 16.4126C4.80631 15.9939 5.51256 15.9064 6.06256 16.1876Z" fill="black"/>
<path d="M19.7563 20.9376C18.8 21.2876 18.1438 22.0938 17.9875 23.1063C17.8188 24.1938 18.4625 25.3938 19.4688 25.8563C20.8188 26.4688 22.375 25.8876 23.0188 24.5188C23.175 24.1751 23.2188 24.0001 23.2375 23.5626C23.2875 22.4563 22.7438 21.5313 21.7563 21.0438C21.3938 20.8688 21.2813 20.8438 20.725 20.8251C20.2125 20.8126 20.025 20.8376 19.7563 20.9376ZM21.0563 21.9126C21.9625 22.1813 22.4375 23.2376 22.0375 24.0938C21.7688 24.6751 21.2313 25.0188 20.5938 25.0188C19.7313 25.0188 19.0875 24.4126 19.0125 23.5313C18.9563 22.8313 19.4 22.1626 20.075 21.9313C20.4875 21.7876 20.6375 21.7876 21.0563 21.9126Z" fill="black"/>
<path d="M13.5939 24.1124C13.1126 24.2749 12.7314 24.5249 12.4189 24.8749C11.2251 26.2062 11.6189 28.2499 13.2314 29.0437C13.6376 29.2437 13.7689 29.2749 14.2501 29.2999C15.1939 29.3437 15.9876 28.9812 16.5251 28.2499C16.9064 27.7312 17.0314 27.3437 17.0314 26.6562C17.0314 26.0187 16.9251 25.6749 16.5751 25.1312C15.9751 24.2249 14.6126 23.7624 13.5939 24.1124ZM15.0001 25.1937C15.3439 25.3499 15.6564 25.6374 15.8314 25.9687C16.0189 26.3249 16.0189 27.0562 15.8314 27.4124C15.2001 28.5999 13.5126 28.5999 12.9626 27.4062C12.7876 27.0312 12.7626 26.3874 12.9064 26.0437C13.2439 25.2374 14.2189 24.8374 15.0001 25.1937Z" fill="black"/>
</g>
</g>
<defs>
<clipPath id="clip0_104_2">
<rect width="32" height="32" fill="white"/>
</clipPath>
<clipPath id="clip1_104_2">
<rect width="32" height="32" fill="white"/>
</clipPath>
</defs>
</svg>
