<svg width="32" height="32" viewBox="0 0 32 32" fill="none" xmlns="http://www.w3.org/2000/svg">
<g clip-path="url(#clip0_104_2)">
<circle cx="16" cy="16" r="13" fill="#EEEEEE" fill-opacity="0.7"/>
<path d="M30.7813 3.45008C30.625 3.53758 30.6375 3.52508 30.0438 4.31258C28.6 6.21883 27.5688 8.63133 26.975 11.4688C26.6938 12.8313 26.4375 15.0063 26.4375 16.0876C26.4375 16.5563 26.4438 16.5813 26.6438 16.7813C26.9 17.0376 27.2813 17.1251 28.1875 17.1251C28.6938 17.1251 28.875 17.1438 28.875 17.2001C28.875 17.2438 28.6938 19.2626 28.4625 21.6876C28.0063 26.5501 28.0063 26.3438 28.3938 26.9126C28.5438 27.1376 28.6938 27.2688 29 27.4251C29.375 27.6188 29.4438 27.6376 29.8438 27.6126C30.5438 27.5688 31.0375 27.2313 31.3063 26.6188C31.4375 26.3313 31.4375 26.2626 31.4375 14.9626L31.4438 3.59383L31.3063 3.48133C31.1563 3.35633 30.9625 3.34383 30.7813 3.45008ZM30.55 16.0313C30.5375 16.0438 29.8313 16.0563 28.9688 16.0688L27.4063 16.0938L27.425 15.5626C27.475 14.1563 27.725 12.3438 28.075 10.9063C28.5 9.12508 29.3563 7.05008 30.1688 5.83133L30.5313 5.28133L30.55 10.6501C30.5563 13.6063 30.5563 16.0251 30.55 16.0313ZM30.5625 21.4688C30.5625 26.4001 30.575 26.2563 30.175 26.5001C29.9125 26.6563 29.7125 26.6563 29.45 26.5001C29.0313 26.2438 29.0313 26.4376 29.475 21.6251C29.7 19.2376 29.8938 17.2188 29.9125 17.1376C29.9375 17.0188 29.9813 17.0001 30.25 17.0001H30.5625V21.4688Z" fill="black"/>
<path d="M29.4875 25.4377C29.3375 25.5939 29.3063 25.6627 29.3438 25.8002C29.3938 26.0127 29.55 26.1689 29.7625 26.2189C29.9 26.2564 29.9688 26.2252 30.125 26.0752C30.3688 25.8252 30.3688 25.6189 30.1188 25.4127C29.8688 25.2002 29.7188 25.2064 29.4875 25.4377Z" fill="black"/>
<path d="M0.625 4.50009C0.50625 4.61884 0.5 4.70634 0.5 7.48759C0.5 10.5876 0.5125 10.7188 0.85 11.3876C1.19375 12.0626 2.025 12.7438 2.7375 12.9313L3 13.0063V15.1563V17.3126H2.69375C2.4875 17.3126 2.34375 17.3501 2.24375 17.4251C2.10625 17.5376 2.09375 17.6626 1.7375 21.7563C1.51875 24.2376 1.38125 26.1876 1.39375 26.5063C1.40625 26.9376 1.44375 27.1126 1.5875 27.3938C1.8 27.8251 2.2125 28.2501 2.60625 28.4438C2.9625 28.6188 3.69375 28.6751 4.0875 28.5626C4.7625 28.3688 5.35 27.7376 5.54375 26.9876L5.65 26.5688L5.26875 22.0813L4.88125 17.5938L4.71875 17.4563C4.6 17.3501 4.475 17.3126 4.275 17.3126H4L4.0125 15.1501L4.03125 12.9876L4.38125 12.8751C5.0875 12.6626 5.73125 12.1063 6.1125 11.3876C6.48125 10.7001 6.5 10.5063 6.5 7.46259C6.5 4.76884 6.5 4.70009 6.36875 4.53759C6.2125 4.33759 5.9 4.31884 5.68125 4.49384L5.53125 4.61259L5.5125 6.99384L5.49375 9.37509H5.125H4.75V7.03759C4.75 4.76884 4.74375 4.70009 4.61875 4.53759C4.45625 4.33134 4.125 4.31259 3.9375 4.50009C3.81875 4.61884 3.8125 4.70634 3.8125 7.00009V9.37509H3.5H3.1875V7.00009C3.1875 4.70634 3.18125 4.61884 3.0625 4.50009C2.9875 4.42509 2.85625 4.37509 2.71875 4.37509C2.58125 4.37509 2.45 4.42509 2.375 4.50009C2.25625 4.61884 2.25 4.70634 2.25 7.00009V9.37509H1.84375H1.4375V7.00009C1.4375 4.70634 1.43125 4.61884 1.3125 4.50009C1.2375 4.42509 1.10625 4.37509 0.96875 4.37509C0.83125 4.37509 0.7 4.42509 0.625 4.50009ZM5.40625 10.6188C5.3625 10.7563 5.2875 10.9313 5.24375 11.0063C5.1 11.2751 4.65625 11.7001 4.34375 11.8626C4.075 12.0063 3.95 12.0313 3.5 12.0313C3.0625 12.0313 2.9125 12.0063 2.65625 11.8813C2.13125 11.6188 1.70625 11.1001 1.53125 10.5126L1.49375 10.3751H3.49375H5.49375L5.40625 10.6188ZM3.96875 18.3876C3.98125 18.4313 4.15 20.2938 4.3375 22.5188C4.575 25.3751 4.65625 26.6313 4.61875 26.7751C4.5375 27.0688 4.3125 27.3813 4.06875 27.5438C3.625 27.8438 2.8875 27.6876 2.575 27.2251C2.2875 26.8063 2.2875 26.8313 2.65625 22.4876C2.84375 20.2438 3 18.3876 3 18.3563C3 18.2751 3.9375 18.3063 3.96875 18.3876Z" fill="black"/>
<path d="M15.0001 8.00631C13.7751 8.14381 12.7876 8.43756 11.6563 9.00006C8.84381 10.3938 6.85006 13.2001 6.43131 16.3563C6.32506 17.1501 6.39381 18.8751 6.55631 19.5938C6.98756 21.4501 7.77506 22.9376 9.02506 24.2376C9.95631 25.2063 10.7188 25.7563 11.8751 26.3001C13.6188 27.1251 15.3876 27.4063 17.2688 27.1563C18.3938 27.0063 19.3001 26.7251 20.3251 26.2126C21.3501 25.7001 22.1251 25.1188 22.9688 24.2438C24.2188 22.9438 25.0126 21.4501 25.4438 19.5938C25.6501 18.7001 25.6813 17.0126 25.5063 16.0063C25.1563 13.9626 24.2688 12.2626 22.7876 10.7813C22.2876 10.2813 21.8188 9.88131 21.4001 9.60631C19.4751 8.33131 17.1938 7.75631 15.0001 8.00631ZM17.4251 9.09381C18.5876 9.28131 19.7876 9.76256 20.8313 10.4501C21.9188 11.1751 23.1626 12.5751 23.7501 13.7438C24.4688 15.1751 24.8001 16.9813 24.6313 18.5001C24.4376 20.1876 23.9001 21.5501 22.8938 22.8876C21.6376 24.5501 19.8126 25.7001 17.6813 26.1626C16.9376 26.3251 15.0626 26.3251 14.3188 26.1626C10.7813 25.3938 8.15631 22.7251 7.45631 19.2063C7.29381 18.3813 7.31256 16.8001 7.48756 15.9563C7.74381 14.7751 8.16256 13.7813 8.85631 12.7313C9.23756 12.1563 10.4563 10.9376 11.0626 10.5188C12.0501 9.85006 13.4251 9.28131 14.5063 9.10006C15.2188 8.98131 16.7063 8.97506 17.4251 9.09381Z" fill="black"/>
<path d="M14.9689 10.9814C13.5876 11.2001 12.2251 11.8939 11.2189 12.9064C9.75636 14.3626 9.02511 16.5814 9.33761 18.6064C9.76886 21.4314 11.8376 23.6126 14.6376 24.1939C15.1814 24.3064 15.4251 24.3189 16.2189 24.2939C17.3939 24.2564 17.9501 24.1189 18.9689 23.6251C20.7939 22.7314 22.0251 21.2126 22.5314 19.2189C23.3064 16.1814 21.8064 12.9626 18.9814 11.5939C18.0251 11.1314 17.4001 10.9939 16.1876 10.9689C15.6189 10.9564 15.0751 10.9626 14.9689 10.9814ZM17.3751 12.0064C19.3939 12.4876 20.9751 14.0314 21.5751 16.1064C21.7001 16.5314 21.7189 16.7314 21.7126 17.6251C21.7126 18.5626 21.6939 18.7064 21.5439 19.2064C20.9126 21.2626 19.3814 22.7064 17.2626 23.2314C16.6876 23.3751 15.3126 23.3751 14.7376 23.2314C12.6189 22.7064 11.0876 21.2626 10.4564 19.2064C10.3064 18.7064 10.2876 18.5626 10.2876 17.6251C10.2814 16.7314 10.3001 16.5314 10.4251 16.0939C11.0751 13.8314 12.9439 12.2064 15.2814 11.8751C15.8126 11.8001 16.7626 11.8564 17.3751 12.0064Z" fill="black"/>
</g>
<defs>
<clipPath id="clip0_104_2">
<rect width="32" height="32" fill="white"/>
</clipPath>
</defs>
</svg>
