<svg width="32" height="32" viewBox="0 0 32 32" fill="none" xmlns="http://www.w3.org/2000/svg">
<g clip-path="url(#clip0_104_2)">
<circle cx="16" cy="16" r="13" fill="#EEEEEE" fill-opacity="0.7"/>
<path d="M11.0438 0.062527C10.2251 0.275027 9.41256 1.02503 9.18756 1.78753C9.11881 2.01253 9.06881 2.06878 8.79381 2.19378C8.33131 2.41253 7.85006 2.91253 7.61256 3.41253C7.45631 3.75003 7.40631 3.94378 7.38756 4.34378C7.34381 5.16253 7.55006 5.71878 8.11256 6.32503L8.38131 6.61253L7.26881 6.63753C6.26881 6.65628 6.13131 6.66878 5.90006 6.79378C5.48756 7.01253 5.26881 7.23128 5.08131 7.61253L4.90631 7.96878V10.375C4.90631 12.6875 4.91256 12.7938 5.03756 13.0625C5.22506 13.4688 5.46881 13.7313 5.83756 13.925C6.10631 14.0625 6.23131 14.0875 6.62506 14.0813C6.88131 14.0813 7.15006 14.0688 7.21881 14.0563C7.34381 14.0313 7.34381 14.0688 7.36256 17.0313L7.37506 20.0313L7.11256 20.3875C6.96256 20.5875 5.93131 22.5375 4.81881 24.7313C3.70631 26.925 2.73131 28.7875 2.65631 28.875C2.39381 29.1688 2.29381 29.45 2.26256 29.9875C2.23756 30.4688 2.25006 30.5313 2.43756 30.9125C2.90006 31.85 4.04381 32.2625 4.96256 31.8125C5.30006 31.65 6.28756 30.7938 6.34381 30.6188C6.45006 30.2875 6.03756 29.9063 5.73131 30.05C5.65631 30.0813 5.40006 30.2875 5.16256 30.5C4.51881 31.0813 4.21256 31.1688 3.71256 30.9438C3.21256 30.7125 3.01881 30.0188 3.32506 29.5625C3.40631 29.45 4.49381 28.45 5.75006 27.3438L8.03131 25.3313L8.06256 25.9C8.10631 26.625 8.25006 26.875 8.74381 27.0813L8.95006 27.1688L8.04381 27.9625C7.50631 28.4313 7.12506 28.8125 7.10006 28.9063C7.04381 29.1188 7.17506 29.3563 7.38756 29.4438C7.62506 29.5375 7.73131 29.4875 8.28131 29.0063C8.52506 28.8 8.73756 28.625 8.76881 28.625C8.79381 28.625 8.81256 29.15 8.81256 29.7875C8.81256 30.7688 8.83131 30.975 8.91881 31.1313C9.15006 31.5188 8.78756 31.5 16.0001 31.5C23.2126 31.5 22.8501 31.5188 23.0813 31.1313C23.1688 30.975 23.1876 30.7688 23.1876 29.7875C23.1876 29.15 23.2126 28.625 23.2376 28.625C23.2688 28.625 24.0751 29.3125 25.0251 30.15C25.9876 31 26.8876 31.7438 27.0501 31.825C27.2813 31.9375 27.4438 31.9688 27.8438 31.9688C28.6563 31.9688 29.2063 31.6313 29.5626 30.925C29.8751 30.2875 29.8188 29.5125 29.4126 28.9813C29.3001 28.8313 28.2938 26.9188 27.1813 24.725C26.0688 22.5375 25.0376 20.5875 24.8876 20.3875L24.6251 20.0313L24.6376 17.0313C24.6563 14.0688 24.6563 14.0313 24.7813 14.0563C24.8501 14.0688 25.1188 14.0813 25.3751 14.0813C25.7688 14.0875 25.8938 14.0625 26.1626 13.925C26.5313 13.7313 26.7751 13.4688 26.9626 13.0625C27.0876 12.7938 27.0938 12.6875 27.0938 10.375C27.0938 8.06253 27.0876 7.95628 26.9626 7.68753C26.7751 7.28128 26.5313 7.01878 26.1626 6.82503C25.8501 6.66253 25.8188 6.65628 24.5501 6.63753L23.2626 6.61878L23.2376 5.38753C23.2188 4.41253 23.1938 4.10628 23.1126 3.92503C22.9313 3.52503 22.4938 3.45003 22.2751 3.78128C22.1876 3.91878 22.1813 3.99378 22.2438 4.29378C22.2876 4.50628 22.3126 5.35628 22.3126 6.45003V8.25003H21.8188H21.3251L21.3001 6.76253C21.2751 5.38753 21.2626 5.25628 21.1251 4.90628C20.9501 4.45628 20.4376 3.91253 19.9688 3.68753C19.6626 3.53753 19.6126 3.53128 18.0313 3.51253C16.1563 3.48753 16.1251 3.49378 15.8438 4.00628C15.6001 4.45628 15.3938 4.67503 15.0376 4.86253C14.7251 5.02503 14.7001 5.03128 13.1438 5.06253L11.5751 5.09378L11.3001 5.28128C11.1501 5.38753 10.9626 5.60003 10.8751 5.75003C10.7251 6.01878 10.7188 6.09378 10.7001 7.13753L10.6751 8.25003H10.1813H9.68756V7.45628C9.68756 6.49378 9.60006 6.26253 9.13131 5.95628C8.59381 5.60628 8.31881 5.12503 8.31256 4.52503C8.30631 3.81253 8.69381 3.25628 9.41256 2.93753C9.83756 2.74378 9.86256 2.71253 10.1001 2.03128C10.3063 1.43128 11.0001 0.937527 11.6251 0.937527C11.9313 0.937527 12.3813 1.08128 12.6251 1.25003C12.7313 1.32503 12.9313 1.53753 13.0688 1.72503C13.4751 2.28128 13.2751 2.25003 16.7063 2.25003C18.5876 2.25003 19.8688 2.27503 20.1001 2.31878C20.3001 2.35628 20.6376 2.46878 20.8376 2.56878C21.0438 2.66878 21.2876 2.75003 21.3813 2.75003C21.7501 2.75003 21.9501 2.26253 21.6876 2.00003C21.5313 1.84378 21.0626 1.60628 20.6251 1.46253C20.3126 1.36253 19.9626 1.35003 17.0813 1.32503C14.0563 1.30628 13.8813 1.30003 13.8438 1.19378C13.7751 0.981277 13.1313 0.431277 12.7188 0.237527C12.3876 0.087527 12.2063 0.043777 11.7938 0.025027C11.5126 0.012527 11.1751 0.031277 11.0438 0.062527ZM19.5501 4.53128C19.8438 4.65628 20.0376 4.84378 20.2063 5.15628C20.3438 5.40003 20.3438 5.46878 20.3626 8.46253C20.3751 10.5375 20.3563 11.625 20.3126 11.85C20.1813 12.475 19.8438 13.0313 19.2251 13.6563C18.3438 14.5375 17.2876 15.1563 16.3688 15.3313C15.3938 15.5125 13.9688 14.8438 12.7813 13.6563C12.1438 13.0188 11.8063 12.4563 11.6876 11.8438C11.6438 11.5875 11.6251 10.625 11.6376 8.82503C11.6563 6.28753 11.6626 6.17503 11.7751 6.08753C11.8751 6.01878 12.1688 6.00003 13.1626 6.00003C13.8501 6.00003 14.5688 5.96878 14.7501 5.93753C15.4813 5.80003 16.1938 5.30003 16.5063 4.71878L16.6563 4.43753H17.9876C19.0438 4.43753 19.3626 4.45628 19.5501 4.53128ZM8.75006 8.05003C8.75006 8.53128 8.74381 8.54378 8.52506 8.75628C8.18131 9.08128 8.00006 9.51253 8.00631 10C8.00631 10.225 8.04381 10.4938 8.08131 10.6063C8.21881 10.9813 8.53131 11.3375 8.88131 11.5313C9.18756 11.7 9.28131 11.7188 9.96881 11.75L10.7126 11.7813L10.7563 12C10.7813 12.1188 10.7938 12.225 10.7876 12.2313C10.7813 12.2438 9.83756 12.4625 8.69381 12.725C6.80631 13.1625 6.59381 13.2 6.37506 13.1313C6.22506 13.0875 6.07506 12.9813 5.98756 12.8563C5.84381 12.6563 5.84381 12.6563 5.84381 10.4063C5.84381 8.40628 5.85631 8.13753 5.95006 7.96253C6.14381 7.61253 6.33756 7.56253 7.61256 7.56253H8.75006V8.05003ZM25.7251 7.66253C26.1501 7.86878 26.1563 7.89378 26.1563 10.4063C26.1563 12.6563 26.1563 12.6563 26.0126 12.8563C25.9251 12.9813 25.7751 13.0875 25.6251 13.1313C25.4063 13.2 25.1938 13.1625 23.3063 12.725C22.1626 12.4625 21.2188 12.2438 21.2126 12.2313C21.2063 12.225 21.2188 12.1188 21.2438 12L21.2876 11.7813L22.0313 11.75C22.7188 11.7188 22.8126 11.7 23.1188 11.5313C23.4688 11.3375 23.7813 10.9813 23.9188 10.6063C23.9563 10.4938 23.9938 10.225 23.9938 10C24.0001 9.51253 23.8188 9.08128 23.4751 8.75628C23.2563 8.54378 23.2501 8.53128 23.2501 8.05003V7.56253H24.3813C25.3001 7.56253 25.5501 7.58128 25.7251 7.66253ZM10.6876 10.0063V10.825L10.0251 10.8L9.36256 10.7813L9.15006 10.55C8.96881 10.35 8.93756 10.2688 8.93756 10.0125C8.93756 9.67503 9.04381 9.48753 9.33756 9.30628C9.49381 9.21253 9.65006 9.18753 10.1126 9.18753H10.6876V10.0063ZM22.6251 9.28128C22.9251 9.43753 23.0626 9.66878 23.0626 10.0063C23.0626 10.2688 23.0313 10.35 22.8501 10.55L22.6376 10.7813L21.9751 10.8L21.3126 10.825V10.0063V9.18753H21.8751C22.2563 9.18753 22.5063 9.21878 22.6251 9.28128ZM11.4063 13.5063C11.5438 13.7125 11.9188 14.1375 12.2376 14.4438L12.8126 15L12.8001 16.1375L12.7813 17.2813L12.2188 17.5125C11.7563 17.7 11.6501 17.725 11.6063 17.65C11.5313 17.5125 11.2126 17.375 10.9751 17.375C10.6563 17.375 9.37506 17.85 9.16881 18.05C8.93756 18.2688 8.81256 18.5125 8.81256 18.7375C8.81256 18.8813 8.76256 18.9438 8.56256 19.0563L8.31256 19.1938V16.4813V13.775L9.67506 13.4563C10.4188 13.2813 11.0626 13.1375 11.0938 13.1313C11.1313 13.1313 11.2688 13.3 11.4063 13.5063ZM22.3626 13.4688L23.6876 13.775V16.4813V19.1938L23.4376 19.0563C23.2376 18.9438 23.1876 18.8813 23.1876 18.7375C23.1876 18.5125 23.0626 18.2688 22.8313 18.05C22.6251 17.85 21.3438 17.375 21.0251 17.375C20.7813 17.375 20.4688 17.5125 20.3938 17.65C20.3501 17.725 20.2438 17.7 19.7813 17.5063L19.2188 17.275L19.2001 16.1375L19.1876 15L19.7626 14.4438C20.0813 14.1375 20.4563 13.7125 20.5938 13.5063C20.7501 13.2688 20.8813 13.1313 20.9376 13.1438C20.9876 13.1563 21.6313 13.3063 22.3626 13.4688ZM14.2751 15.85C14.8438 16.1125 15.5938 16.3125 16.0001 16.3125C16.4126 16.3125 17.2001 16.1 17.7438 15.8438C17.9938 15.725 18.2126 15.625 18.2251 15.625C18.2376 15.625 18.2501 16.0313 18.2501 16.5313C18.2501 17.2375 18.2751 17.4875 18.3501 17.6313C18.4001 17.7375 18.4376 17.8313 18.4251 17.8438C18.3438 17.9063 17.4938 18.2063 17.1501 18.2875C16.5813 18.4188 15.4188 18.4188 14.8501 18.2875C14.5063 18.2063 13.6563 17.9063 13.5751 17.8438C13.5626 17.8313 13.6001 17.7375 13.6501 17.6313C13.7251 17.4875 13.7501 17.2375 13.7501 16.5313C13.7501 16.0313 13.7626 15.625 13.7751 15.625C13.7876 15.625 14.0126 15.725 14.2751 15.85ZM10.8126 20.1563V21.9375H10.2813H9.75006L9.76256 20.325L9.78131 18.7188L10.2501 18.55C10.5063 18.4563 10.7376 18.3813 10.7688 18.3813C10.7938 18.375 10.8126 19.175 10.8126 20.1563ZM13.2126 18.6875C14.9751 19.5563 17.0063 19.5563 18.7938 18.6875L19.4313 18.375L19.8438 18.5438L20.2563 18.7125L20.2376 19.5875L20.2188 20.4688H16.0001H11.7813L11.7626 19.5875L11.7438 18.7063L12.1376 18.55C12.3563 18.4625 12.5438 18.3813 12.5563 18.3813C12.5751 18.375 12.8688 18.5125 13.2126 18.6875ZM21.7501 18.55L22.2188 18.7188L22.2376 20.325L22.2501 21.9375H21.7188H21.1876V20.1563C21.1876 19.175 21.2063 18.375 21.2376 18.3813C21.2626 18.3813 21.4938 18.4563 21.7501 18.55ZM8.81256 20.9875V21.9188L8.58131 22.0688C8.15006 22.3563 8.09381 22.4813 8.07506 23.3188L8.05006 24.0625L6.50631 25.425C5.66256 26.1688 4.91256 26.825 4.85006 26.875C4.72506 26.975 7.37506 21.7 7.73756 21.125C7.95006 20.7875 8.65006 20.0625 8.75631 20.0625C8.78756 20.0625 8.81256 20.4813 8.81256 20.9875ZM23.6751 20.425C23.8813 20.6188 24.1438 20.9375 24.2626 21.125C24.6188 21.6938 27.2751 26.975 27.1501 26.8688C27.0813 26.8188 26.3376 26.1625 25.4876 25.4188L23.9501 24.0625L23.9251 23.3188C23.9063 22.4813 23.8501 22.3563 23.4188 22.0688L23.1876 21.9188V20.9875C23.1876 20.4313 23.2126 20.0625 23.2501 20.0625C23.2813 20.0625 23.4751 20.225 23.6751 20.425ZM20.2501 21.7563C20.2501 22.05 20.2313 22.0938 19.9688 22.35C19.5501 22.7688 19.5001 23.0125 19.5001 24.5313C19.5001 26.05 19.5563 26.3063 19.9751 26.725L20.2501 27.0063V28.7813V30.5625H16.0001H11.7501V28.7813V27.0063L12.0251 26.725C12.4438 26.3063 12.5001 26.05 12.5001 24.5313C12.5001 23.0125 12.4501 22.7688 12.0313 22.35C11.7688 22.0938 11.7501 22.05 11.7501 21.7563V21.4375H16.0001H20.2501V21.7563ZM11.4001 23.0688L11.5626 23.2625V24.5063C11.5626 25.8063 11.5188 26.0563 11.2813 26.15C11.2251 26.1688 10.6876 26.1875 10.0876 26.1875H9.00006V24.5313V22.875H10.1188H11.2376L11.4001 23.0688ZM23.0001 24.5313V26.1875H21.8938C21.1188 26.1813 20.7501 26.1625 20.6813 26.1063C20.4626 25.9375 20.4376 25.7688 20.4376 24.5063V23.2625L20.6001 23.0688L20.7626 22.875H21.8813H23.0001V24.5313ZM26.7626 27.8C27.7876 28.7063 28.6688 29.525 28.7188 29.625C28.8438 29.8688 28.8376 30.3 28.7001 30.5625C28.5688 30.8125 28.1376 31.0625 27.8438 31.0625C27.7376 31.0625 27.5563 31.0125 27.4376 30.95C27.3188 30.8938 26.2813 30.0125 25.1376 29.0063L23.0626 27.1688L23.2938 27.0625C23.7813 26.8375 23.9376 26.5375 23.9376 25.8V25.3L24.4251 25.7313C24.6876 25.9688 25.7438 26.9 26.7626 27.8ZM10.8126 28.8438V30.5625H10.2813H9.75006V29.1375V27.7188L10.0751 27.425C10.3251 27.2 10.4563 27.1313 10.6126 27.125H10.8126V28.8438ZM21.9126 27.4125L22.2501 27.7V29.1313V30.5625H21.7188H21.1876V28.8438V27.125H21.3813C21.5251 27.125 21.6688 27.2 21.9126 27.4125Z" fill="black"/>
<path d="M13.3062 6.83744C12.5437 7.10619 12.2437 7.56244 12.5937 7.90619C12.7875 8.10619 13.0187 8.10619 13.2875 7.89994C13.4125 7.80619 13.6125 7.72494 13.7687 7.70619C13.9875 7.68119 14.0812 7.70619 14.3125 7.86869C14.7187 8.14369 15.0625 8.11244 15.1875 7.78119C15.425 7.15619 14.1687 6.53119 13.3062 6.83744Z" fill="black"/>
<path d="M17.6877 6.80625C17.0627 7.0125 16.6814 7.43125 16.8127 7.775C16.9377 8.1125 17.2814 8.14375 17.6877 7.86875C17.9189 7.70625 18.0127 7.68125 18.2314 7.70625C18.3877 7.725 18.5877 7.80625 18.7127 7.9C18.9877 8.10625 19.2127 8.10625 19.4189 7.9C19.5439 7.775 19.5689 7.70625 19.5377 7.54375C19.4877 7.29375 19.3814 7.18125 18.9877 6.96875C18.6502 6.78125 18.0002 6.7 17.6877 6.80625Z" fill="black"/>
<path d="M13.5313 8.71887C13.4 8.84387 13.375 8.93137 13.375 9.25012C13.375 9.69387 13.4438 9.85637 13.6688 9.94387C13.8875 10.0251 14.1813 9.90637 14.2563 9.70637C14.2875 9.62512 14.3125 9.40012 14.3125 9.21262C14.3125 8.93137 14.2875 8.84387 14.1563 8.71887C14.075 8.63137 13.9313 8.56262 13.8438 8.56262C13.7563 8.56262 13.6125 8.63137 13.5313 8.71887Z" fill="black"/>
<path d="M17.8438 8.7188C17.7125 8.8438 17.6875 8.9313 17.6875 9.2438C17.6875 9.7063 17.7188 9.7938 17.9438 9.91255C18.3563 10.1188 18.625 9.86255 18.625 9.26255C18.625 8.9313 18.6 8.8438 18.4688 8.7188C18.3875 8.6313 18.2438 8.56255 18.1563 8.56255C18.0688 8.56255 17.925 8.6313 17.8438 8.7188Z" fill="black"/>
<path d="M14.3563 11.4875C14.2938 11.55 14.25 11.7062 14.25 11.825C14.25 12.1 14.525 12.3687 15.0625 12.6187C15.3563 12.7562 15.4938 12.7812 16 12.7812C16.5063 12.7812 16.6438 12.7562 16.9375 12.6187C17.1313 12.5312 17.3938 12.3625 17.5188 12.25C17.7063 12.0875 17.75 12.0062 17.75 11.8187C17.75 11.3687 17.2938 11.2187 16.9125 11.5437C16.6375 11.775 16.3625 11.875 16 11.875C15.6375 11.875 15.3625 11.775 15.0875 11.5437C14.85 11.3437 14.5063 11.3187 14.3563 11.4875Z" fill="black"/>
</g>
<defs>
<clipPath id="clip0_104_2">
<rect width="32" height="32" fill="white"/>
</clipPath>
</defs>
</svg>
