<svg width="32" height="32" viewBox="0 0 32 32" fill="none" xmlns="http://www.w3.org/2000/svg">
<g clip-path="url(#clip0_104_2)">
<circle cx="16" cy="16" r="13" fill="#EEEEEE" fill-opacity="0.7"/>
<g clip-path="url(#clip1_104_2)">
<path d="M22.2445 0.0630122C19.668 0.264096 17.1791 1.67168 15.697 3.75164C14.021 6.1018 13.5458 8.96724 14.3775 11.7761C14.5588 12.3982 15.1154 13.5482 15.5281 14.1766C16.3661 15.4459 17.7669 16.6398 19.1802 17.2996L19.6305 17.507L18.9801 17.7081C18.6237 17.8212 18.0984 18.0223 17.8107 18.1605C17.523 18.2925 17.2666 18.4056 17.2354 18.4056C17.2104 18.4056 14.365 16.1246 10.913 13.3345C7.46732 10.5445 4.49063 8.15662 4.30302 8.02466C3.63389 7.55337 2.93975 7.40256 2.18307 7.55966C1.33884 7.7356 0.657202 8.25716 0.294496 9.00494C-0.230803 10.0795 -0.0431962 11.2797 0.776019 12.1092C1.03241 12.3668 3.09609 13.8184 7.67369 16.9603C11.2695 19.4236 14.2149 21.4407 14.2212 21.447C14.2274 21.4533 14.1774 21.6543 14.1086 21.8931C13.9272 22.5215 13.9335 23.4452 14.1148 24.0296C14.2837 24.5575 14.4838 24.9659 14.784 25.387L15.0028 25.6949L14.7527 26.0279C14.2086 26.7568 13.971 27.4418 13.971 28.3027C13.9773 30.3575 15.6032 31.9976 17.6481 31.9976C18.311 31.9976 18.7737 31.8782 19.3866 31.5514C20.3621 31.0424 21.0938 30.037 21.2752 28.975C21.3002 28.8305 21.3377 28.7111 21.3565 28.7111C21.3815 28.7111 21.7504 28.7425 22.1819 28.774C22.7072 28.8179 23.2763 28.8179 23.9079 28.774L24.8584 28.7048L26.0466 29.4463C27.0847 30.0873 27.2473 30.213 27.2848 30.3763C27.4099 30.9545 27.9164 31.5514 28.5168 31.8216C28.9295 32.0164 29.5486 32.0541 29.9738 31.9159C30.3866 31.7839 30.8493 31.4257 31.0807 31.0801C31.3684 30.6403 31.4372 30.4078 31.4372 29.8988C31.4372 29.2641 31.2558 28.8242 30.8181 28.3906C30.3866 27.9633 29.9301 27.7685 29.3547 27.7685C29.0608 27.7623 28.9295 27.7371 28.8169 27.6366C28.6418 27.4921 28.6481 27.4921 29.0608 27.2721C30.0989 26.7129 31.2121 25.5441 31.6498 24.5449C31.8312 24.1428 32 23.3698 32 22.9677C32 22.0691 31.5497 20.9254 30.8744 20.1211C30.0364 19.1282 28.5293 18.2045 26.8658 17.6767L26.3468 17.5133L26.9596 17.2054C29.5361 15.9046 31.2746 13.5984 31.8499 10.7079C32.0188 9.87212 32.0063 8.22575 31.8249 7.37114C31.5497 6.08295 31.1433 5.09638 30.4679 4.07211C28.9358 1.76594 26.4218 0.282947 23.6453 0.0567283C23.2075 0.0253091 22.8511 0.000173628 22.8448 0.000173628C22.8385 0.00645749 22.5696 0.0315929 22.2445 0.0630122ZM24.083 1.18782C24.1768 1.21924 24.1018 1.28208 23.7078 1.50202C22.8636 1.96074 21.7004 2.76507 20.4935 3.70765C18.7988 5.03354 18.3172 5.23463 16.9164 5.23463C16.4787 5.23463 16.1035 5.21578 16.0785 5.19692C15.9972 5.10895 16.7851 4.03441 17.3354 3.47515C18.9676 1.82249 21.1188 0.986739 23.4014 1.11242C23.714 1.13127 24.0205 1.16269 24.083 1.18782ZM26.2843 1.82878C28.0227 2.63939 29.4235 4.06583 30.2177 5.80646C30.4179 6.24633 30.7118 7.15121 30.6742 7.19519C30.6617 7.20148 30.3115 7.14492 29.9051 7.06323C28.2666 6.73019 27.2285 6.62965 25.2774 6.62336C24.1706 6.62336 23.17 6.65478 22.7135 6.70505C20.3434 6.96897 18.0796 7.54709 15.9096 8.45196C15.4594 8.64048 15.0841 8.79129 15.0716 8.79129C15.0216 8.79129 15.0654 8.19433 15.1529 7.69162C15.2968 6.86843 15.5469 6.1395 15.672 6.17721C15.7283 6.19606 16.0284 6.24005 16.3349 6.27775C17.4605 6.42228 18.7175 6.18349 19.6117 5.66193C19.9432 5.47341 20.4872 5.07125 21.4628 4.30462C22.3758 3.58197 23.2388 2.99129 24.1518 2.47601C24.8209 2.0927 25.7089 1.64026 25.8152 1.63398C25.8403 1.62769 26.0529 1.71567 26.2843 1.82878ZM28.1228 7.84243C29.0608 7.97439 29.6362 8.07493 30.4241 8.25716C30.8181 8.34514 30.8806 8.38284 30.9119 8.52109C30.9807 8.79129 30.8806 10.1737 30.7555 10.7393C30.5117 11.8264 29.8738 13.2654 29.6049 13.3408C29.1671 13.4539 27.3724 13.3345 26.3468 13.1209C25.2086 12.8821 24.4895 12.5805 22.5884 11.5248C21.0438 10.6639 20.187 10.3623 19.3053 10.3623C18.1421 10.3685 17.1416 10.9969 16.3098 12.2537L15.9409 12.8004L15.722 12.3228C15.4531 11.7321 15.2655 11.1163 15.1529 10.4754L15.0716 9.98523L15.4844 9.79043C17.5605 8.80386 20.4184 8.01209 22.7197 7.78588C23.0949 7.75446 23.5014 7.71047 23.6202 7.6979C23.7391 7.68533 24.602 7.67905 25.5276 7.69162C26.7783 7.71047 27.4537 7.74817 28.1228 7.84243ZM3.40251 8.7096C3.57761 8.79758 15.6907 18.5061 16.1973 18.9711C16.2223 18.9963 16.0722 19.1659 15.8533 19.3545C15.6345 19.5367 15.303 19.8634 15.1154 20.0834C14.9278 20.297 14.7527 20.473 14.7277 20.4793C14.6401 20.4793 1.76408 11.6065 1.52645 11.3802C0.632187 10.5131 1.0887 8.92325 2.3269 8.59649C2.60831 8.52109 3.1211 8.57764 3.40251 8.7096ZM20.481 11.6693C20.7624 11.7761 21.494 12.1343 22.0944 12.4736C24.6646 13.8938 25.9153 14.3022 28.054 14.4216C28.473 14.4468 28.8107 14.4845 28.8107 14.5096C28.8107 14.541 28.6231 14.7295 28.3917 14.9306C27.1785 16.0052 25.9215 16.6461 24.4457 16.9415C23.7266 17.086 22.1632 17.0797 21.494 16.9352C20.2996 16.6713 19.2865 16.2377 18.3923 15.6093C17.9295 15.2825 16.6163 13.988 16.6225 13.8624C16.6225 13.7367 17.1353 12.8884 17.4542 12.4799C18.2672 11.4368 19.1865 11.1917 20.481 11.6693ZM24.2956 18.2234C25.9778 18.4056 27.5475 18.9083 28.7231 19.6498L28.9795 19.8069L28.6606 20.253C27.8977 21.3276 27.6038 22.5718 27.8351 23.7469C27.9727 24.4255 28.1791 24.9157 28.5981 25.5503C28.7857 25.8268 28.9358 26.0782 28.9358 26.097C28.9358 26.1724 28.0478 26.6563 27.4724 26.8888C25.8778 27.5423 23.8891 27.8502 22.1444 27.7057C21.7004 27.6743 21.3252 27.624 21.3064 27.5926C21.2814 27.5675 21.2189 27.3789 21.1563 27.1716C20.9312 26.4049 20.3621 25.6509 19.6617 25.1922C19.2428 24.9157 18.4298 24.6266 18.0733 24.6266C17.892 24.6266 17.8607 24.6078 17.8982 24.5135C17.9233 24.4569 17.992 24.1993 18.0608 23.9417C18.361 22.7603 18.0984 21.4093 17.3479 20.3347C17.2041 20.1211 17.0603 19.9137 17.0353 19.876C16.9665 19.7566 17.8607 19.2413 18.73 18.902C19.5304 18.5941 20.9187 18.2736 21.838 18.1982C22.4258 18.148 23.7328 18.1605 24.2956 18.2234ZM16.51 20.9883C17.2041 22.0502 17.3104 23.3761 16.7789 24.4255C16.6475 24.6769 16.5725 24.746 16.2473 24.8905L15.8596 25.0602L15.672 24.7963C14.7465 23.5207 14.8403 21.9874 15.9221 20.7746C16.0347 20.6489 16.1472 20.5421 16.1723 20.5421C16.1973 20.5421 16.3474 20.7432 16.51 20.9883ZM30.1239 20.8689C30.6242 21.4973 30.9369 22.3079 30.9369 22.9614C30.9369 23.6526 30.593 24.4947 30.0677 25.0791L29.7925 25.387L29.6487 25.211C29.2109 24.6769 28.8107 23.5961 28.8107 22.9488C28.8107 22.5655 29.0045 21.78 29.1922 21.4093C29.3547 21.0762 29.7425 20.5421 29.8113 20.5421C29.8425 20.5421 29.9801 20.6929 30.1239 20.8689ZM18.7737 25.9337L19.2115 26.141L19.0551 26.2667C18.7988 26.4678 18.1484 26.6374 17.6418 26.6374C17.1478 26.6374 16.5162 26.4678 16.2473 26.2667L16.091 26.1473L16.3724 26.0028C16.8664 25.7514 17.1165 25.6949 17.7419 25.7137C18.2609 25.7263 18.3923 25.7577 18.7737 25.9337ZM16.3161 27.4795C16.8602 27.6931 17.5168 27.7748 18.0858 27.7057C18.7487 27.6177 19.1427 27.4732 19.6555 27.1276L19.9181 26.9516L20.0119 27.159C20.3559 27.9068 20.3621 28.6483 20.037 29.3458L19.8994 29.6474L19.5179 29.4086C18.361 28.6986 16.8539 28.6986 15.722 29.4023C15.5532 29.5092 15.4031 29.5909 15.3906 29.5909C15.3718 29.5909 15.303 29.4589 15.2342 29.3018C14.9653 28.6986 14.9716 27.9131 15.2405 27.2784L15.3781 26.9579L15.6407 27.1339C15.7783 27.2281 16.0847 27.3852 16.3161 27.4795ZM28.0478 28.3906C28.5793 28.7802 28.7231 28.8368 29.1859 28.8368C29.6049 28.8368 29.8425 28.9122 30.0489 29.107C30.5429 29.572 30.4804 30.3952 29.9238 30.7659C29.5924 30.9859 29.0921 30.9922 28.7857 30.7785C28.548 30.6151 28.3104 30.2444 28.3104 30.037C28.3104 29.6663 28.1603 29.5092 27.2911 28.9625C26.8158 28.6671 26.4343 28.4158 26.4343 28.3969C26.4343 28.3467 27.4537 28.0325 27.5412 28.0576C27.5787 28.0639 27.8101 28.221 28.0478 28.3906ZM18.6549 30.1501C18.805 30.2192 18.9926 30.3198 19.0677 30.3701C19.199 30.4643 19.1927 30.4706 18.7675 30.6717C18.361 30.8665 18.2985 30.8791 17.6481 30.8791C17.004 30.8791 16.9352 30.8665 16.5287 30.6717C16.0347 30.4392 16.0409 30.3826 16.56 30.1564C17.1666 29.8988 18.0733 29.8925 18.6549 30.1501Z" fill="black"/>
<path d="M20.3487 19.7701C20.3237 19.789 20.3049 20.0969 20.3049 20.4488V21.0835L19.7171 21.228L19.1355 21.3662L19.2606 21.8689C19.3981 22.4219 19.3856 22.4156 19.9297 22.2711C20.1173 22.2208 20.2799 22.1768 20.2924 22.1768C20.2987 22.1768 20.3049 22.3465 20.3049 22.5539V22.9309H20.8365H21.368V22.4659V22.0072L21.6057 21.9632C21.7307 21.9443 21.9684 21.9255 22.1372 21.9255H22.4311V22.4282V22.9309H22.9627H23.4942V22.4282V21.9255H23.7381C23.8694 21.9255 24.1071 21.9443 24.2697 21.9632L24.5573 22.0072V22.4659V22.9309H25.0889H25.6204V22.5476C25.6204 22.2648 25.6392 22.1706 25.7017 22.1957C25.9519 22.29 26.5084 22.3779 26.5522 22.3277C26.596 22.2837 26.8086 21.5045 26.8086 21.3976C26.8086 21.3851 26.5397 21.3097 26.2145 21.228L25.6204 21.096V20.4111V19.7261H25.0889H24.5573V20.3231V20.9201L24.1071 20.8824C23.8569 20.8635 23.613 20.8384 23.5755 20.8195C23.5192 20.807 23.4942 20.6373 23.4942 20.2603V19.7199L22.9814 19.7387L22.4624 19.7576L22.4436 20.3043L22.4249 20.8572H22.0934C21.9121 20.8572 21.6682 20.8761 21.5619 20.8949L21.368 20.9326V20.3294V19.7261H20.8802C20.6113 19.7261 20.3674 19.745 20.3487 19.7701Z" fill="black"/>
<path d="M5.4842 19.3088C2.80143 19.7927 0.762774 21.8287 0.256236 24.5307C0.181194 24.958 0.162433 25.2848 0.187447 25.8817C0.243729 27.1322 0.56266 28.1251 1.23179 29.1368C3.40177 32.4358 7.99813 32.9762 10.8372 30.2679C11.4814 29.6521 11.8753 29.1179 12.238 28.3639C12.7321 27.3333 12.8321 26.8683 12.8259 25.5676C12.8259 24.5559 12.8071 24.4239 12.6508 23.9023C11.9379 21.5585 10.2181 19.9309 7.86055 19.3717C7.29148 19.2397 6.05953 19.2083 5.4842 19.3088ZM7.34776 20.3582L7.74799 20.4274L7.04134 21.1437L6.32843 21.8601H5.51547H4.69626L4.45237 21.3511C4.16471 20.7667 4.14594 20.8107 4.85885 20.5719C5.68432 20.2954 6.55982 20.22 7.34776 20.3582ZM9.3489 21.1249C10.0243 21.5333 10.7309 22.2874 11.1624 23.054L11.3563 23.3996L10.7372 24.3736C10.3932 24.9078 10.0931 25.3539 10.0618 25.3665C10.0305 25.3728 9.54901 25.1088 8.99245 24.7695L7.97312 24.16L7.56664 23.3494L7.16016 22.5325L7.99813 21.6904C8.54844 21.1374 8.86112 20.8672 8.92366 20.8861C8.97369 20.9049 9.16755 21.0118 9.3489 21.1249ZM3.5456 21.9229L3.79575 22.4256L3.36425 23.2928L2.93276 24.1537L2.13856 24.4867C1.70081 24.669 1.32559 24.8009 1.30683 24.7884C1.28807 24.7695 1.3381 24.5244 1.40689 24.2417C1.55072 23.7012 1.85715 23.0414 2.18233 22.5576C2.37619 22.2748 3.1829 21.4202 3.25794 21.4202C3.2767 21.4202 3.40803 21.6464 3.5456 21.9229ZM6.51604 23.6196C6.70365 23.9966 6.85999 24.3359 6.85999 24.3673C6.85999 24.4302 5.53423 25.4419 5.45294 25.4419C5.37164 25.4419 4.04589 24.4302 4.04589 24.3673C4.04589 24.3359 4.20223 23.9966 4.38983 23.6196L4.73378 22.9283H5.45294H6.1721L6.51604 23.6196ZM11.8003 25.5738C11.8003 26.4599 11.6627 27.126 11.4689 27.1699C11.1061 27.2579 10.0868 27.4527 10.0118 27.4527C9.96175 27.4527 10.1243 27.1825 10.3807 26.8369C10.6246 26.4976 11.0249 25.9069 11.2687 25.5236C11.5064 25.1403 11.7252 24.8386 11.7503 24.8512C11.7753 24.87 11.8003 25.1968 11.8003 25.5738ZM4.13969 25.8252C4.97141 26.4536 4.97767 26.4599 5.0402 26.7803C5.29034 28.0057 5.40916 28.6152 5.40291 28.6215C5.3904 28.6215 3.94583 29.8217 3.72696 30.0102C3.63941 30.0856 3.58313 30.0605 3.29546 29.8343C2.64509 29.319 2.13856 28.6969 1.7821 27.9868C1.58199 27.591 1.32559 26.7615 1.26931 26.353L1.23179 26.0388L2.18233 25.6178C2.70763 25.3916 3.17664 25.2031 3.22042 25.1968C3.26419 25.1905 3.67693 25.4733 4.13969 25.8252ZM8.52343 25.7309C9.01746 26.0326 9.42394 26.2902 9.42394 26.3153C9.42394 26.3342 9.1738 26.6798 8.87363 27.0757L8.32957 27.7983L7.37278 27.9931C6.70365 28.1314 6.40348 28.1691 6.39097 28.1188C6.37846 28.0811 6.29091 27.6726 6.20336 27.2139C6.04077 26.4033 6.04077 26.3719 6.15333 26.2902C6.21587 26.2462 6.55982 25.9823 6.92252 25.7058C7.28523 25.423 7.5854 25.1968 7.5979 25.1968C7.61041 25.1905 8.02315 25.4356 8.52343 25.7309ZM10.9561 28.5021C10.7184 28.8666 10.6621 28.942 10.2056 29.4007C9.80541 29.8154 8.77983 30.5381 8.71104 30.4627C8.69228 30.4501 8.77357 30.0542 8.87988 29.5892L9.08 28.7409L10.018 28.5398C10.5371 28.433 10.9811 28.3387 11.0123 28.3387C11.0374 28.3325 11.0123 28.4079 10.9561 28.5021ZM7.90433 29.0991C7.88557 29.1808 7.79176 29.5829 7.69796 29.9977C7.60416 30.4124 7.51036 30.7769 7.48534 30.802C7.39154 30.9026 6.64111 30.9528 6.05328 30.9026C5.4717 30.846 4.73378 30.6763 4.73378 30.6009C4.73378 30.5758 5.07147 30.2742 5.4842 29.9348L6.24088 29.3065L7.03509 29.1431C7.47283 29.0488 7.8543 28.9734 7.88557 28.9671C7.91058 28.9608 7.92309 29.0237 7.90433 29.0991Z" fill="black"/>
</g>
</g>
<defs>
<clipPath id="clip0_104_2">
<rect width="32" height="32" fill="white"/>
</clipPath>
<clipPath id="clip1_104_2">
<rect width="32" height="32" fill="white"/>
</clipPath>
</defs>
</svg>
