<svg width="32" height="32" viewBox="0 0 32 32" fill="none" xmlns="http://www.w3.org/2000/svg">
<g clip-path="url(#clip0_104_2)">
<circle cx="16" cy="16" r="13" fill="#EEEEEE" fill-opacity="0.7"/>
<g clip-path="url(#clip1_104_2)">
<path d="M7.33125 0.124991C6.55 0.331241 5.8625 0.781241 5.39375 1.40624C4.7125 2.29999 4.625 2.71249 4.625 5.13749C4.625 6.96874 4.625 6.99374 4.49375 7.03124C4.275 7.09999 3.8625 7.51249 3.74375 7.78124C3.5875 8.12499 3.5875 8.68124 3.75 9.01249L3.875 9.27499L3.725 9.43124C3.34375 9.84374 3.21875 10.4937 3.40625 11.0687C3.61875 11.7062 4.35 12.25 5 12.25C5.16875 12.25 5.16875 12.2562 5.2125 12.7875C5.3625 14.6062 6.2875 16.2437 7.7375 17.2437C7.925 17.375 7.9375 17.4062 7.9375 17.7562C7.9375 18.1937 7.81875 18.5125 7.6125 18.65C7.5375 18.7 6.45625 18.9937 5.21875 19.3062C2.5125 19.9875 2.3 20.075 1.5 20.875C1.06875 21.3 0.9125 21.5125 0.7 21.9437C0.25 22.8562 0.25 22.8187 0.25 27.5437V31.7437L0.4125 31.8687C0.61875 32.0312 0.81875 32.0375 1.00625 31.8812L1.15625 31.7625L1.1875 27.425C1.225 22.7 1.19375 23.0312 1.59375 22.25C1.825 21.7937 2.44375 21.1875 2.91875 20.95C3.16875 20.8187 3.875 20.6125 4.93125 20.3437C5.825 20.1187 6.59375 19.9375 6.64375 19.9375C6.6875 19.9375 6.775 20.025 6.8375 20.1312C7.04375 20.475 7.69375 21.1187 8.15625 21.4312C10.1875 22.7875 12.8437 22.5562 14.5625 20.875C14.825 20.6187 15.1312 20.2625 15.2437 20.0875L15.4437 19.7687L16.4875 19.9437C18.0187 20.2 18.5187 20.4125 19.2625 21.1125C19.775 21.6 19.7625 21.575 20.8125 23.525C21.7437 25.25 21.8437 25.375 22.35 25.375C22.5 25.375 22.6937 25.3437 22.7812 25.3C22.8687 25.2625 23.6875 24.375 24.6062 23.325L26.2687 21.425L27.2875 22.4437C28.2812 23.4375 28.3 23.4625 28.2 23.5937C28.1437 23.6625 27.5437 24.35 26.875 25.1187C26.2062 25.8812 25.6312 26.575 25.6062 26.65C25.4937 26.975 25.8125 27.3125 26.15 27.225C26.3687 27.1687 30.8187 22.0937 31.0312 21.6562C31.3375 21.025 31.3375 20.1875 31.0312 19.5375C30.8437 19.1375 30.3 18.6062 29.9125 18.4312C29.4625 18.2375 28.9937 18.1687 28.5625 18.25C28.35 18.2875 28.1375 18.3375 28.0875 18.3562C28.0125 18.3812 28 17.925 28 15.05V11.7062L29.7625 10.275C30.725 9.49374 31.5687 8.76249 31.6312 8.65624C31.7875 8.41249 31.7812 7.96249 31.6312 7.71249C31.5312 7.54999 29.1437 5.54999 28.2937 4.91249C27.9062 4.62499 27.4437 4.68124 27.2 5.04374C27.1 5.19999 27.0937 5.68124 27.0625 12.175L27.0312 19.1375L24.7187 21.7812C22.7125 24.0687 22.3937 24.4125 22.325 24.325C22.2812 24.2687 21.9062 23.5875 21.4937 22.8062C21.075 22.0312 20.5937 21.2 20.425 20.975C19.8875 20.2562 18.95 19.6 18.0625 19.3187C17.8375 19.25 16.975 19.075 16.1375 18.9375C15.225 18.7875 14.5562 18.6437 14.4625 18.5812C14.2312 18.4312 14.125 18.175 14.125 17.7625V17.4L14.6312 17C15.9 16 16.7062 14.4687 16.7937 12.9L16.8312 12.2687L17.1562 12.2312C17.75 12.1687 18.2375 11.8375 18.5312 11.3C18.8562 10.7125 18.7562 9.89374 18.3 9.39999C18.1812 9.26874 18.1812 9.24999 18.2812 9.06249C18.425 8.78124 18.4687 8.29999 18.375 7.97499C18.2812 7.64374 17.975 7.26249 17.6687 7.09374L17.45 6.97499L17.425 4.97499C17.4 3.13124 17.3875 2.93749 17.2625 2.56249C16.85 1.30624 15.8125 0.349991 14.575 0.093741C14.2437 0.018741 13.5 -8.96406e-06 10.9687 0.00624104C8.05625 0.00624104 7.74375 0.018741 7.33125 0.124991ZM14.4687 1.03124C15.5062 1.30624 16.2625 2.13124 16.4312 3.19374C16.5187 3.70624 16.525 6.56249 16.4375 6.56249C16.4062 6.56249 16.1625 6.49374 15.8937 6.40624C15.3 6.21874 15.1 6.21249 14.9375 6.37499C14.7812 6.53124 14.775 6.88124 14.925 7.01874C14.9812 7.06874 15.3062 7.20624 15.6437 7.31249C16.5375 7.59999 17.3 7.93124 17.4062 8.08124C17.4562 8.15624 17.5 8.29374 17.5 8.39374C17.5 8.61874 17.1937 8.93749 16.9812 8.93749C16.8937 8.93749 16.5437 8.82499 16.1937 8.68749C15.45 8.39374 14.1687 8.04999 13.2187 7.89374C12.1437 7.71874 9.6875 7.73749 8.59375 7.93124C7.6375 8.09999 6.55 8.39999 5.78125 8.71249C5.475 8.83749 5.14375 8.93749 5.05 8.93749C4.8 8.93749 4.5625 8.68749 4.5625 8.42499C4.5625 8.00624 4.74375 7.88749 6.05625 7.43124C7.96875 6.76874 10.0375 6.48749 11.9437 6.61874C12.4437 6.65624 12.9375 6.70624 13.05 6.72499C13.2125 6.75624 13.275 6.73124 13.4437 6.56874C13.6 6.40624 13.6312 6.33749 13.5937 6.19999C13.525 5.89999 13.3812 5.82499 12.7812 5.74374C12.0437 5.64999 10.0062 5.64999 9.21875 5.74374C8.33125 5.85624 7.14375 6.09999 6.33125 6.34999C5.94375 6.46874 5.6125 6.56249 5.59375 6.56249C5.53125 6.56249 5.5625 3.37499 5.63125 3.04999C5.83125 2.11249 6.6125 1.28749 7.55625 1.02499C7.76875 0.968741 8.65 0.949991 10.9687 0.943741C13.5937 0.937491 14.1562 0.949991 14.4687 1.03124ZM29.4625 7.06249C30.2062 7.66249 30.8125 8.16874 30.8125 8.18749C30.8125 8.22499 28.1437 10.3937 28.0562 10.425C28.025 10.4375 28 9.54999 28 8.18749C28 6.79374 28.025 5.93749 28.0562 5.94999C28.0937 5.95624 28.725 6.46249 29.4625 7.06249ZM12.9375 8.78749C13.7 8.89999 14.5562 9.10624 15.3125 9.36249L15.8437 9.54374L15.8625 11.3062C15.875 12.9 15.8625 13.125 15.75 13.6062C15.3625 15.25 14.0812 16.6 12.4062 17.125C11.7937 17.3187 10.7562 17.3625 10.0812 17.225C8.01875 16.8062 6.48125 15.1687 6.1875 13.0875C6.15625 12.825 6.125 11.9312 6.125 11.1V9.58124L6.58125 9.41874C7.5875 9.05624 8.75 8.79374 9.78125 8.68749C10.525 8.61249 12.1187 8.66249 12.9375 8.78749ZM5.00625 9.87499H5.1875V10.5937V11.3125H5.01875C4.5875 11.3125 4.2125 10.8625 4.26875 10.4187C4.30625 10.1437 4.59375 9.78749 4.7375 9.84374C4.78125 9.86249 4.90625 9.87499 5.00625 9.87499ZM17.7062 10.1937C17.9187 10.6 17.6937 11.125 17.25 11.2562C16.8312 11.3812 16.8062 11.3437 16.825 10.5812L16.8437 9.90624L17.0937 9.86874C17.4 9.82499 17.5562 9.91249 17.7062 10.1937ZM9.5625 18.0812C9.95625 18.1937 10.1875 18.2187 11.0312 18.2125C11.9937 18.2125 12.5 18.1312 13.0812 17.9062C13.1687 17.8687 13.1875 17.8937 13.1875 18.0437C13.1875 18.575 13.6 19.1937 14.125 19.4562L14.4375 19.6125L14.1875 19.925C13.8687 20.3187 13.3625 20.7 12.7937 20.975C11.4875 21.5937 9.91875 21.475 8.7 20.6625C8.3 20.4 7.6875 19.8062 7.6875 19.6875C7.6875 19.6625 7.775 19.6 7.8875 19.5562C8.375 19.3562 8.7875 18.775 8.85625 18.1812C8.8875 17.925 8.9125 17.875 8.99375 17.9062C9.05 17.9312 9.30625 18.0062 9.5625 18.0812ZM29.5312 19.2937C30.0375 19.55 30.3312 20.025 30.3312 20.5937C30.3312 21.1437 30.2375 21.3 29.1437 22.525L28.925 22.7687L27.9062 21.75L26.8875 20.7312L27.425 20.1125C27.7187 19.775 28.05 19.4375 28.1562 19.375C28.5625 19.125 29.1187 19.0937 29.5312 19.2937Z" fill="black"/>
<path d="M8.1375 10.25C8.0125 10.3687 8 10.4375 8 11.1187C8 11.9562 8.05 12.0625 8.45 12.0625C8.79375 12.0625 8.9 11.8937 8.93125 11.3062C8.95625 10.7 8.90625 10.4062 8.74375 10.2437C8.5875 10.0875 8.3125 10.0937 8.1375 10.25Z" fill="black"/>
<path d="M13.2813 10.2812C13.1375 10.4187 13.125 10.475 13.125 11.0812C13.125 11.6437 13.1438 11.7562 13.2563 11.9C13.4188 12.1062 13.75 12.125 13.9375 11.9375C14.05 11.825 14.0625 11.7312 14.0625 11.1C14.0625 10.4 14.0563 10.3812 13.9 10.2562C13.6813 10.0812 13.4688 10.0937 13.2813 10.2812Z" fill="black"/>
<path d="M9.71246 14.275C9.45621 14.4562 9.47496 14.8312 9.74371 15.0437C9.79996 15.0875 10.0375 15.1875 10.275 15.2562C10.9812 15.4812 11.9687 15.3375 12.3875 14.9562C12.5375 14.8187 12.5312 14.4687 12.375 14.3125C12.2187 14.1562 12.0562 14.1562 11.6375 14.3125C11.25 14.4625 10.8125 14.4687 10.4687 14.3375C10.0875 14.1875 9.86246 14.1687 9.71246 14.275Z" fill="black"/>
<path d="M5.1625 27.5688L5 27.6938V29.7188V31.7438L5.1625 31.8688C5.43125 32.0813 5.7 32.0313 5.84375 31.7438C5.9625 31.5125 5.98125 27.95 5.8625 27.7313C5.7 27.4188 5.43125 27.3563 5.1625 27.5688Z" fill="black"/>
<path d="M18.4376 27.5625C18.3689 27.6312 18.3001 27.75 18.2813 27.825C18.2626 27.9062 18.2501 28.825 18.2626 29.8625L18.2813 31.7625L18.4314 31.8812C18.6189 32.0375 18.8189 32.0312 19.0251 31.8687C19.1876 31.7437 19.1876 31.725 19.1876 30.9875V30.2312L19.7376 30.7562C20.4626 31.4625 20.7376 31.5937 21.4751 31.5937C21.9814 31.5937 22.0814 31.575 22.4126 31.4062C22.7314 31.2437 22.9376 31.0375 23.9251 29.9187C25.0939 28.5875 25.1564 28.4812 24.9939 28.1812C24.9001 28 24.6376 27.9187 24.4439 28C24.3564 28.0437 23.8064 28.6187 23.2314 29.2812C22.5876 30.025 22.1001 30.525 21.9751 30.5875C21.8564 30.6437 21.6251 30.6875 21.4564 30.6875C21.0439 30.6875 20.7751 30.5 19.8939 29.6062L19.1876 28.8937V28.2937C19.1876 27.725 19.1814 27.6937 19.0251 27.5687C18.8126 27.4062 18.6001 27.4 18.4376 27.5625Z" fill="black"/>
</g>
</g>
<defs>
<clipPath id="clip0_104_2">
<rect width="32" height="32" fill="white"/>
</clipPath>
<clipPath id="clip1_104_2">
<rect width="32" height="32" fill="white"/>
</clipPath>
</defs>
</svg>
