<svg width="32" height="32" viewBox="0 0 32 32" fill="none" xmlns="http://www.w3.org/2000/svg">
<g clip-path="url(#clip0_104_2)">
<circle cx="16" cy="16" r="13" fill="#EEEEEE" fill-opacity="0.7"/>
<g clip-path="url(#clip1_104_2)">
<path d="M15.6563 0.262547C15.1375 0.618797 14.3375 1.43755 13.9688 1.9938C13.7188 2.37505 13.35 3.12505 13.1688 3.63755C13.1375 3.7313 13.0813 3.7188 12.6688 3.5313C11.5875 3.0313 10.3375 2.81255 9.26875 2.9313C8.51875 3.01255 8.20625 3.10005 8.13125 3.23755C8.025 3.45005 7.9375 4.1813 7.9375 4.8813C7.9375 5.7438 8.0875 6.51255 8.39375 7.28755C8.51875 7.5938 8.6125 7.8438 8.60625 7.8438C8.6 7.85005 8.39375 7.92505 8.15 8.0188C7.4875 8.27505 6.725 8.77505 6.13125 9.33755C5.59375 9.86255 5 10.625 5 10.8125C5 10.9625 5.55 11.7188 5.9625 12.1375C6.73125 12.9188 7.8625 13.5938 8.86875 13.8688C11.1188 14.4875 13.4938 13.8688 15.1313 12.25C15.3875 11.9938 15.6938 11.6688 15.8 11.5313L16 11.2813L16.1313 11.4375C17.1125 12.6313 17.9563 13.2625 19.1313 13.6938C20.8813 14.3313 22.6125 14.2375 24.2813 13.4063C25.3063 12.8938 26.1875 12.125 26.7938 11.2125C27.0625 10.8063 27.05 10.7438 26.6313 10.1813C25.925 9.25005 24.825 8.3938 23.85 8.0188C23.6063 7.92505 23.4 7.85005 23.3938 7.8438C23.3875 7.8438 23.4813 7.5938 23.6063 7.28755C23.725 6.9813 23.8813 6.4813 23.9438 6.16255C24.15 5.15005 24.0625 3.35005 23.7875 3.1563C23.6625 3.06255 23.1375 2.9563 22.5313 2.90005C21.7125 2.82505 20.3688 3.0688 19.4938 3.4563L19.1563 3.60005L18.9813 3.16255C18.7 2.4563 18.2563 1.77505 17.6875 1.17505C17.125 0.568797 16.375 4.7092e-05 16.1625 0.00629709C16.0875 0.00629709 15.8625 0.125047 15.6563 0.262547ZM16.8563 1.3938C17.5813 2.0813 18.0188 2.7313 18.3375 3.57505L18.4938 3.9938L18.2 4.2063C17.45 4.76255 16.5938 5.83755 16.2125 6.71255C16.1188 6.93755 16.0188 7.12505 16 7.12505C15.9813 7.12505 15.8813 6.93755 15.7813 6.70005C15.4938 6.03755 14.9313 5.25005 14.3438 4.70005L13.8063 4.18755L13.8813 3.92505C14.05 3.2813 14.6063 2.30005 15.1188 1.7313C15.2438 1.5938 15.525 1.3313 15.7438 1.15005C16.2125 0.756297 16.175 0.750046 16.8563 1.3938ZM10.5563 3.68755C11.1938 3.7688 11.9625 4.0063 12.5125 4.2938L12.9313 4.51255L12.8938 5.2688C12.8563 6.12505 12.9563 6.88755 13.2125 7.65005C13.2938 7.8938 13.3563 8.10005 13.35 8.1063C13.3438 8.11255 13.125 8.03755 12.8688 7.9438C12.6188 7.8438 12.1813 7.71255 11.9063 7.6563C11.3688 7.53755 10.1688 7.50005 9.675 7.5813L9.38125 7.6313L9.23125 7.3313C9.04375 6.9563 8.84375 6.3313 8.74375 5.83755C8.66875 5.43755 8.68125 3.8563 8.7625 3.7813C8.8875 3.65005 9.86875 3.6063 10.5563 3.68755ZM23.1 3.72505C23.275 3.7688 23.3125 3.9563 23.3125 4.85005C23.3125 5.57505 23.225 6.1438 23.0125 6.75005C22.8688 7.1688 22.6375 7.62505 22.575 7.62505C22.55 7.62505 22.2813 7.5938 21.9813 7.5563C21.3063 7.47505 20.35 7.56255 19.6063 7.7813C19.325 7.86255 19.0875 7.9188 19.075 7.9063C19.0625 7.8938 19.1125 7.6938 19.1813 7.4563C19.4063 6.70005 19.4563 6.21255 19.425 5.2438L19.3875 4.32505L19.7438 4.1688C20.225 3.95005 20.8938 3.7563 21.3813 3.68755C21.7688 3.6313 22.825 3.6563 23.1 3.72505ZM18.6688 5.8438C18.6313 6.7438 18.5063 7.2813 18.1625 8.03755C17.9875 8.41255 17.8938 8.5313 17.5875 8.7563C17.3813 8.90005 17.025 9.2063 16.7875 9.4313L16.3563 9.8438L16.3938 9.1563C16.4813 7.5938 17.0938 6.26255 18.1938 5.2188C18.7375 4.7063 18.7188 4.6813 18.6688 5.8438ZM14.5375 6.0438C15.1625 6.91255 15.5375 8.0063 15.6063 9.1563L15.6438 9.8438L15.2125 9.43755C14.6875 8.9438 14.4938 8.6813 14.1813 8.0313C13.8438 7.3063 13.6875 6.6563 13.6438 5.7813L13.6125 5.0313L13.9375 5.3438C14.1125 5.51255 14.3875 5.8313 14.5375 6.0438ZM11.8313 8.41255C12.9375 8.6438 13.8438 9.16255 14.6063 9.9938L15.125 10.55L14.7313 10.5938C13.5813 10.7125 11.9938 10.225 10.9063 9.4063C10.4813 9.0813 9.875 8.47505 9.875 8.36255C9.875 8.2313 11.125 8.26255 11.8313 8.41255ZM22.1125 8.3438C22.1688 8.40005 21.6625 8.95005 21.2625 9.27505C20.275 10.0688 19.2125 10.4875 17.8938 10.6C17.1063 10.6625 17.0938 10.6438 17.6438 10.0688C17.9063 9.7938 18.1875 9.46255 18.2813 9.32505C18.5563 8.91255 19.6313 8.46255 20.7 8.31255C21.0688 8.26255 22.0563 8.2813 22.1125 8.3438ZM9.4125 8.98755C10.1688 9.9438 11.5125 10.8125 12.7188 11.125C13.3188 11.2813 14.3625 11.4 14.7 11.3563C14.8313 11.3375 14.9375 11.3438 14.9375 11.375C14.9375 11.4563 14.1688 12.1438 13.8125 12.3813C13.0625 12.875 12.2313 13.1875 11.3063 13.3125C9.88125 13.5125 8.225 13.0375 7.03125 12.0938C6.5375 11.7063 5.875 10.9625 5.875 10.8C5.875 10.65 6.825 9.6688 7.275 9.3438C7.70625 9.0438 8.19375 8.78755 8.65625 8.6188C8.83125 8.5563 8.98125 8.5063 9 8.51255C9.01875 8.51255 9.2 8.72505 9.4125 8.98755ZM23.3188 8.6188C23.7938 8.7813 24.2813 9.0313 24.725 9.3438C25.175 9.6688 26.125 10.65 26.125 10.8C26.125 11.025 25.225 11.95 24.6125 12.3688C22.3875 13.8688 19.425 13.6313 17.4563 11.7875C17.2375 11.5875 17.0625 11.4 17.0625 11.375C17.0625 11.3438 17.1688 11.3375 17.3 11.3563C17.6375 11.4 18.6813 11.2813 19.2813 11.125C20.4875 10.8125 21.8313 9.9438 22.5875 8.98755C22.8 8.72505 22.9688 8.5063 22.975 8.5063C22.975 8.50005 23.1313 8.55005 23.3188 8.6188Z" fill="black"/>
<path d="M1.60001 6.22505C0.793757 6.47505 0.137507 7.2438 0.0250066 8.0688C-0.00624343 8.33755 0.525007 19.9125 0.593757 20.4C0.612507 20.5375 0.693757 20.7563 0.768757 20.8875C0.843757 21.025 1.96251 22.1313 3.35626 23.4438C5.67501 25.625 5.81251 25.7625 5.81251 25.9688V26.1875H5.46876C5.20001 26.1875 5.09376 26.2188 4.99376 26.3188C4.86251 26.45 4.85626 26.4688 4.88751 29.1C4.91251 31.6063 4.91876 31.75 5.03751 31.8813L5.15626 32.0188L9.87501 31.975C14.05 31.9313 14.6063 31.9188 14.7 31.8313C14.8063 31.7375 14.8125 31.525 14.8125 29.0813V26.4313L14.6563 26.2813C14.5375 26.1563 14.4438 26.125 14.1875 26.125H13.8625L13.9 25.7313C13.925 25.5188 13.9438 24.6 13.9563 23.6875L13.9688 22.0313L13.8063 21.6813C13.7125 21.4875 13.5313 21.2125 13.4063 21.0688C13.0813 20.7125 5.93126 14.325 5.60626 14.1063C5.46876 14.0125 5.24376 13.9188 5.10626 13.8938C4.93751 13.8688 4.85001 13.8188 4.81251 13.725C4.78751 13.65 4.70626 12.325 4.63126 10.775C4.51876 8.2688 4.48751 7.91255 4.37501 7.6063C3.95001 6.47505 2.74376 5.87505 1.60001 6.22505ZM2.76876 6.96255C3.13751 7.0938 3.41251 7.35005 3.59376 7.7063C3.75001 8.03755 3.75626 8.08755 3.87501 10.5375C3.93751 11.9063 4.00626 13.2313 4.02501 13.475L4.05001 13.9188L3.84376 14.0188C3.51876 14.175 3.19376 14.4938 3.01251 14.8375C2.88126 15.0938 2.85001 15.2438 2.85001 15.625C2.84376 16.475 2.86876 16.5125 5.31876 18.7313C6.48751 19.7875 7.49376 20.675 7.55626 20.7C7.75626 20.7688 7.96876 20.6125 7.98751 20.375C8.00626 20.1563 7.96251 20.1125 5.88126 18.225C4.07501 16.5938 3.73751 16.2625 3.65001 16.025C3.45001 15.4938 3.68751 14.9188 4.21251 14.6813C4.53126 14.5375 4.77501 14.5375 5.07501 14.675C5.26251 14.7625 11.3125 20.1063 12.5563 21.2813C13.2313 21.9188 13.2188 21.8938 13.2063 23.75C13.1938 24.625 13.175 25.5125 13.15 25.725L13.1188 26.1063L12.175 26.1438C11.6563 26.1688 10.1813 26.1875 8.89376 26.1875H6.56251L6.55626 25.9188C6.55626 25.775 6.52501 25.5688 6.48126 25.4625C6.43126 25.3375 5.51876 24.4375 3.92501 22.9438C2.14376 21.2688 1.42501 20.5563 1.38126 20.4188C1.34376 20.3063 1.18751 17.5188 1.03126 14.225C0.781257 9.12505 0.750007 8.18755 0.818757 7.9438C0.918757 7.5938 1.42501 7.06255 1.75001 6.9563C2.05001 6.86255 2.48751 6.86255 2.76876 6.96255ZM14.0625 29.0188V31.1688L11.425 31.2063C9.97501 31.2313 8.10001 31.25 7.25001 31.25H5.70626L5.66251 30.9188C5.64376 30.7438 5.62501 29.7688 5.62501 28.7688V26.9375L8.76876 26.9188C10.4938 26.9125 12.3938 26.9 12.9875 26.8875L14.0625 26.875V29.0188Z" fill="black"/>
<path d="M29.1063 6.21255C28.7188 6.3188 28.175 6.70005 27.9375 7.0188C27.525 7.5813 27.5063 7.68755 27.3688 10.775C27.2938 12.325 27.2125 13.65 27.1875 13.725C27.15 13.8188 27.0625 13.8688 26.8938 13.8938C26.7563 13.9188 26.5313 14.0125 26.3938 14.1063C26.0688 14.325 18.8438 20.7875 18.5625 21.1C18.45 21.2313 18.2813 21.4938 18.1938 21.6875L18.0313 22.0313L18.0438 23.6875C18.0563 24.6 18.075 25.5188 18.1 25.7313L18.1375 26.125H17.8125C17.5563 26.125 17.4625 26.1563 17.3438 26.2813L17.1875 26.4313V29.0813C17.1875 31.525 17.1938 31.7375 17.3 31.8313C17.3938 31.9188 17.95 31.9313 22.125 31.975L26.8438 32.0188L26.9625 31.8813C27.0813 31.75 27.0875 31.6063 27.1125 29.1C27.1438 26.4688 27.1375 26.45 27.0063 26.3188C26.9063 26.2188 26.8 26.1875 26.5313 26.1875H26.1875V25.9688C26.1875 25.7688 26.3313 25.6188 28.6438 23.45C30.0563 22.1125 31.15 21.0375 31.2313 20.8938C31.3063 20.7563 31.3875 20.5375 31.4063 20.4C31.475 19.9125 32.0063 8.33755 31.975 8.0688C31.8813 7.36255 31.3313 6.63755 30.6688 6.3438C30.2125 6.13755 29.5688 6.0813 29.1063 6.21255ZM30.4188 7.05005C30.7375 7.21255 31.0188 7.53755 31.1563 7.8938C31.2563 8.16255 31.25 8.40005 30.9688 14.225C30.7688 18.375 30.65 20.3375 30.6 20.4688C30.55 20.5813 29.4938 21.6125 28.0438 22.9688C25.4375 25.4063 25.4375 25.4063 25.4375 25.95V26.1875H23.1063C21.8188 26.1875 20.3438 26.1688 19.825 26.1438L18.8813 26.1063L18.85 25.725C18.825 25.5125 18.8063 24.625 18.7938 23.75C18.775 21.825 18.7438 21.925 19.7313 21.025C22.3188 18.6625 26.7375 14.7625 26.925 14.675C27.0563 14.6125 27.2375 14.5625 27.3313 14.5625C27.5375 14.5625 27.9188 14.7125 28.0875 14.8625C28.25 15.0063 28.4375 15.4313 28.4375 15.6563C28.4375 16.1 28.2688 16.2875 26.1 18.25C24.0438 20.1125 23.9938 20.1625 24.0125 20.375C24.0313 20.6188 24.2438 20.7688 24.45 20.6938C24.5125 20.675 25.5188 19.7875 26.6875 18.7313C29.125 16.5188 29.1563 16.4813 29.1563 15.625C29.1563 15.2438 29.125 15.1 28.9875 14.8375C28.8 14.4875 28.4438 14.1313 28.1438 14.0063L27.95 13.925L27.975 13.4813C27.9938 13.2313 28.0625 11.9063 28.125 10.5375C28.2438 8.1063 28.25 8.03755 28.4063 7.71255C28.575 7.3688 28.875 7.0938 29.2438 6.9563C29.5438 6.8438 30.1 6.8938 30.4188 7.05005ZM23.8 26.9375H26.375V28.7625C26.375 29.7688 26.3563 30.7438 26.3375 30.9188L26.2938 31.25H24.75C23.9 31.25 22.025 31.2313 20.575 31.2063L17.9375 31.1688V29.0125V26.8563L19.5813 26.8938C20.4813 26.9188 22.3813 26.9375 23.8 26.9375Z" fill="black"/>
</g>
</g>
<defs>
<clipPath id="clip0_104_2">
<rect width="32" height="32" fill="white"/>
</clipPath>
<clipPath id="clip1_104_2">
<rect width="32" height="32" fill="white"/>
</clipPath>
</defs>
</svg>
