<svg width="16" height="18" viewBox="0 0 16 18" fill="none" xmlns="http://www.w3.org/2000/svg">
<path d="M4.95982 15.8676C5.66073 16.7585 6.76182 17.3327 8 17.3327C9.23819 17.3327 10.3393 16.7585 11.0402 15.8676C9.02203 16.141 6.97798 16.141 4.95982 15.8676Z" fill="#A1A1A1"/>
<path d="M13.6243 6.49935V7.0861C13.6243 7.79026 13.8252 8.47866 14.2018 9.06456L15.1247 10.5003C15.9676 11.8117 15.3241 13.5943 13.858 14.009C10.0227 15.0939 5.97728 15.0939 2.14197 14.009C0.675872 13.5943 0.0323529 11.8117 0.875299 10.5003L1.79816 9.06456C2.17476 8.47866 2.37573 7.79026 2.37573 7.0861V6.49935C2.37573 3.27769 4.8938 0.666016 8 0.666016C11.1062 0.666016 13.6243 3.27769 13.6243 6.49935Z" fill="#A1A1A1"/>
</svg>
