<svg width="675" height="71" viewBox="0 0 675 71" fill="none" xmlns="http://www.w3.org/2000/svg">
<path d="M662.927 26.4568C669.507 26.4568 674.827 21.2104 674.827 14.7396C674.827 8.26883 669.507 3.02344 662.927 3.02344C656.357 3.02344 651.03 8.26883 651.03 14.7396C651.03 21.2104 656.357 26.4568 662.927 26.4568Z" fill="white"/>
<path d="M36.5377 71C31.2449 71 26.3671 70.1842 21.9035 68.5517C17.5036 66.8568 13.6456 64.4713 10.33 61.3954C7.07792 58.3195 4.5277 54.7095 2.67809 50.5663C0.89291 46.4231 0 41.8716 0 36.9126C0 31.9534 0.89291 27.4018 2.67809 23.2586C4.5277 19.1154 7.11014 15.5057 10.4257 12.4299C13.7413 9.35369 17.6315 6.99983 22.0948 5.36732C26.5584 3.67241 31.4685 2.82496 36.8247 2.82496C42.7549 2.82496 48.0792 3.79819 52.7979 5.74401C57.5804 7.69015 61.5975 10.5151 64.8497 14.2189L54.9023 23.2586C52.479 20.7479 49.8328 18.8959 46.9634 17.7031C44.0939 16.4476 40.9697 15.8197 37.59 15.8197C34.3379 15.8197 31.3728 16.3218 28.6947 17.3264C26.0166 18.3307 23.6886 19.7747 21.7121 21.6578C19.7994 23.5412 18.3009 25.7696 17.2166 28.3437C16.1968 30.9177 15.6862 33.7737 15.6862 36.9126C15.6862 39.9885 16.1968 42.8135 17.2166 45.3875C18.3009 47.9612 19.7994 50.2213 21.7121 52.1672C23.6886 54.0506 25.9844 55.4946 28.599 56.4988C31.2771 57.5031 34.21 58.0056 37.3987 58.0056C40.4594 58.0056 43.4246 57.5345 46.294 56.5929C49.2269 55.5887 52.0648 53.9248 54.8066 51.6023L63.6063 62.6195C59.9718 65.3187 55.7311 67.3903 50.8852 68.8343C46.1026 70.2783 41.3202 71 36.5377 71ZM49.4504 60.642V35.8767H63.6063V62.6195L49.4504 60.642ZM73.1218 69.8703V0H88.0427V69.8703H73.1218ZM122.551 70.6233C117.067 70.6233 112.189 69.4936 107.917 67.2335C103.708 64.9737 100.361 61.8979 97.8739 58.0056C95.4506 54.0506 94.2391 49.5621 94.2391 44.5401C94.2391 39.455 95.4506 34.9668 97.8739 31.0745C100.361 27.1195 103.708 24.0437 107.917 21.8463C112.189 19.5862 117.067 18.4565 122.551 18.4565C127.971 18.4565 132.818 19.5862 137.09 21.8463C141.363 24.0437 144.708 27.0879 147.132 30.9801C149.557 34.8724 150.767 39.3923 150.767 44.5401C150.767 49.5621 149.557 54.0506 147.132 58.0056C144.708 61.8979 141.363 64.9737 137.09 67.2335C132.818 69.4936 127.971 70.6233 122.551 70.6233ZM122.551 58.5704C125.038 58.5704 127.27 58.0053 129.247 56.8755C131.223 55.7455 132.785 54.1447 133.934 52.0731C135.081 49.9387 135.655 47.4274 135.655 44.5401C135.655 41.5893 135.081 39.0783 133.934 37.0067C132.785 34.9351 131.223 33.3343 129.247 32.2043C127.27 31.0742 125.038 30.5094 122.551 30.5094C120.064 30.5094 117.832 31.0742 115.856 32.2043C113.879 33.3343 112.285 34.9351 111.073 37.0067C109.926 39.0783 109.352 41.5893 109.352 44.5401C109.352 47.4274 109.926 49.9387 111.073 52.0731C112.285 54.1447 113.879 55.7455 115.856 56.8755C117.832 58.0053 120.064 58.5704 122.551 58.5704ZM187.333 70.6233C182.803 70.6233 178.915 69.6818 175.664 67.7984C172.41 65.9153 169.924 63.0586 168.202 59.2297C166.481 55.3371 165.619 50.4406 165.619 44.5401C165.619 38.5759 166.51 33.6793 168.297 29.8501C170.145 26.0212 172.696 23.1645 175.95 21.2811C179.201 19.398 182.995 18.4565 187.333 18.4565C192.178 18.4565 196.513 19.5235 200.34 21.6578C204.228 23.7921 207.29 26.8053 209.523 30.6979C211.817 34.5901 212.965 39.2041 212.965 44.5401C212.965 49.813 211.817 54.3956 209.523 58.2878C207.29 62.1801 204.228 65.2246 200.34 67.422C196.513 69.556 192.178 70.6233 187.333 70.6233ZM156.914 69.8703V0H171.837V29.4737L170.881 44.4456L171.167 59.512V69.8703H156.914ZM184.749 58.5704C187.235 58.5704 189.435 58.0053 191.349 56.8755C193.327 55.7455 194.889 54.1447 196.034 52.0731C197.248 49.9387 197.854 47.4274 197.854 44.5401C197.854 41.5893 197.248 39.0783 196.034 37.0067C194.889 34.9351 193.327 33.3343 191.349 32.2043C189.435 31.0742 187.235 30.5094 184.749 30.5094C182.263 30.5094 180.031 31.0742 178.052 32.2043C176.077 33.3343 174.515 34.9351 173.367 37.0067C172.218 39.0783 171.645 41.5893 171.645 44.5401C171.645 47.4274 172.218 49.9387 173.367 52.0731C174.515 54.1447 176.077 55.7455 178.052 56.8755C180.031 58.0053 182.263 58.5704 184.749 58.5704ZM249.85 69.8703V59.9828L248.894 57.8171V40.1143C248.894 36.975 247.908 34.5268 245.929 32.7694C244.016 31.0118 241.051 30.1327 237.036 30.1327C234.293 30.1327 231.582 30.5721 228.904 31.4509C226.291 32.267 224.059 33.397 222.21 34.841L216.854 24.5772C219.659 22.631 223.037 21.1246 226.99 20.057C230.944 18.99 234.963 18.4565 239.044 18.4565C246.886 18.4565 252.977 20.2772 257.312 23.9179C261.65 27.5586 263.817 33.2402 263.817 40.9617V69.8703H249.85ZM234.166 70.6233C230.147 70.6233 226.704 69.9644 223.834 68.6461C220.967 67.2652 218.767 65.4128 217.235 63.0903C215.705 60.7678 214.941 58.1621 214.941 55.2747C214.941 52.2612 215.673 49.6248 217.14 47.3647C218.67 45.1049 221.062 43.3473 224.312 42.0915C227.566 40.7732 231.806 40.1143 237.036 40.1143H250.713V48.6832H238.66C235.152 48.6832 232.731 49.2481 231.39 50.3782C230.114 51.5082 229.48 52.9205 229.48 54.6154C229.48 56.4988 230.212 58.0056 231.68 59.1353C233.209 60.2026 235.282 60.7361 237.895 60.7361C240.381 60.7361 242.613 60.1713 244.592 59.0412C246.567 57.8488 248.002 56.1222 248.894 53.8621L251.191 60.642C250.107 63.9061 248.129 66.386 245.262 68.0809C242.392 69.7759 238.692 70.6233 234.166 70.6233ZM273.494 69.8703V0H288.414V69.8703H273.494ZM299.491 69.8703V3.955H312.306L351.81 51.4138H345.591V3.955H360.895V69.8703H348.175L308.576 22.4112H314.795V69.8703H299.491ZM396.345 70.6233C390.859 70.6233 385.981 69.4936 381.712 67.2335C377.504 64.9737 374.156 61.8979 371.67 58.0056C369.242 54.0506 368.035 49.5621 368.035 44.5401C368.035 39.455 369.242 34.9668 371.67 31.0745C374.156 27.1195 377.504 24.0437 381.712 21.8463C385.981 19.5862 390.859 18.4565 396.345 18.4565C401.763 18.4565 406.615 19.5862 410.884 21.8463C415.154 24.0437 418.502 27.0879 420.926 30.9801C423.351 34.8724 424.561 39.3923 424.561 44.5401C424.561 49.5621 423.351 54.0506 420.926 58.0056C418.502 61.8979 415.154 64.9737 410.884 67.2335C406.615 69.4936 401.763 70.6233 396.345 70.6233ZM396.345 58.5704C398.831 58.5704 401.067 58.0053 403.042 56.8755C405.014 55.7455 406.579 54.1447 407.728 52.0731C408.877 49.9387 409.449 47.4274 409.449 44.5401C409.449 41.5893 408.877 39.0783 407.728 37.0067C406.579 34.9351 405.014 33.3343 403.042 32.2043C401.067 31.0742 398.831 30.5094 396.345 30.5094C393.859 30.5094 391.623 31.0742 389.648 32.2043C387.676 33.3343 386.079 34.9351 384.868 37.0067C383.719 39.0783 383.147 41.5893 383.147 44.5401C383.147 47.4274 383.719 49.9387 384.868 52.0731C386.079 54.1447 387.676 55.7455 389.648 56.8755C391.623 58.0053 393.859 58.5704 396.345 58.5704ZM496.613 18.4565C500.693 18.4565 504.292 19.2726 507.423 20.9048C510.605 22.4739 513.091 24.9222 514.881 28.2496C516.726 31.5136 517.657 35.7199 517.657 40.8673V69.8703H502.734V43.1274C502.734 39.0466 501.875 36.0335 500.153 34.0877C498.432 32.1419 496.004 31.1686 492.884 31.1686C490.71 31.1686 488.77 31.6711 487.049 32.675C485.328 33.6169 483.987 35.0609 483.03 37.0067C482.074 38.9525 481.595 41.4325 481.595 44.4456V69.8703H466.675V43.1274C466.675 39.0466 465.813 36.0335 464.092 34.0877C462.432 32.1419 460.04 31.1686 456.92 31.1686C454.746 31.1686 452.806 31.6711 451.085 32.675C449.364 33.6169 448.023 35.0609 447.066 37.0067C446.11 38.9525 445.631 41.4325 445.631 44.4456V69.8703H430.711V19.2095H444.964V33.0517L442.286 29.0026C444.069 25.5504 446.588 22.9447 449.842 21.187C453.155 19.3667 456.92 18.4565 461.127 18.4565C465.842 18.4565 469.955 19.6489 473.467 22.0345C477.033 24.357 479.395 27.9353 480.544 32.7694L475.282 31.3568C477.004 27.4018 479.747 24.2629 483.509 21.9404C487.335 19.6176 491.702 18.4565 496.613 18.4565ZM558.769 69.8703V59.9828L557.812 57.8171V40.1143C557.812 36.975 556.823 34.5268 554.848 32.7694C552.934 31.0118 549.97 30.1327 545.951 30.1327C543.204 30.1327 540.5 30.5721 537.822 31.4509C535.206 32.267 532.97 33.397 531.125 34.841L525.769 24.5772C528.571 22.631 531.952 21.1246 535.909 20.057C539.856 18.99 543.875 18.4565 547.959 18.4565C555.804 18.4565 561.889 20.2772 566.227 23.9179C570.561 27.5586 572.732 33.2402 572.732 40.9617V69.8703H558.769ZM543.081 70.6233C539.065 70.6233 535.622 69.9644 532.752 68.6461C529.882 67.2652 527.683 65.4128 526.153 63.0903C524.62 60.7678 523.856 58.1621 523.856 55.2747C523.856 52.2612 524.588 49.6248 526.056 47.3647C527.585 45.1049 529.977 43.3473 533.231 42.0915C536.482 40.7732 540.718 40.1143 545.951 40.1143H559.628V48.6832H547.578C544.067 48.6832 541.646 49.2481 540.308 50.3782C539.029 51.5082 538.395 52.9205 538.395 54.6154C538.395 56.4988 539.127 58.0056 540.595 59.1353C542.124 60.2026 544.197 60.7361 546.813 60.7361C549.299 60.7361 551.525 60.1713 553.507 59.0412C555.482 57.8488 556.917 56.1222 557.812 53.8621L560.106 60.642C559.022 63.9061 557.047 66.386 554.177 68.0809C551.307 69.7759 547.604 70.6233 543.081 70.6233ZM604.876 70.6233C600.03 70.6233 595.667 69.556 591.771 67.422C587.886 65.2246 584.791 62.1801 582.494 58.2878C580.265 54.3956 579.146 49.813 579.146 44.5401C579.146 39.2041 580.265 34.5901 582.494 30.6979C584.791 26.8053 587.886 23.7921 591.771 21.6578C595.667 19.5235 600.03 18.4565 604.876 18.4565C609.213 18.4565 613.008 19.398 616.258 21.2811C619.509 23.1645 622.031 26.0212 623.814 29.8501C625.604 33.6793 626.492 38.5759 626.492 44.5401C626.492 50.4406 625.633 55.3371 623.909 59.2297C622.187 63.0586 619.701 65.9153 616.45 67.7984C613.265 69.6818 609.405 70.6233 604.876 70.6233ZM607.459 58.5704C609.884 58.5704 612.083 58.0053 614.059 56.8755C616.04 55.7455 617.599 54.1447 618.744 52.0731C619.961 49.9387 620.563 47.4274 620.563 44.5401C620.563 41.5893 619.961 39.0783 618.744 37.0067C617.599 34.9351 616.04 33.3343 614.059 32.2043C612.083 31.0742 609.884 30.5094 607.459 30.5094C604.973 30.5094 602.744 31.0742 600.762 32.2043C598.787 33.3343 597.196 34.9351 595.982 37.0067C594.834 39.0783 594.261 41.5893 594.261 44.5401C594.261 47.4274 594.834 49.9387 595.982 52.0731C597.196 54.1447 598.787 55.7455 600.762 56.8755C602.744 58.0053 604.973 58.5704 607.459 58.5704ZM620.944 69.8703V59.512L621.231 44.4456L620.277 29.4737V0H635.197V69.8703H620.944Z" fill="white"/>
</svg>
