<svg width="32" height="32" viewBox="0 0 32 32" fill="none" xmlns="http://www.w3.org/2000/svg">
<path d="M4.27783 15.6668C4.27783 11.3718 4.27783 9.22425 5.61212 7.88996C6.94641 6.55566 9.09392 6.55566 13.3889 6.55566H17.9445C22.2395 6.55566 24.387 6.55566 25.7213 7.88996C27.0556 9.22425 27.0556 11.3718 27.0556 15.6668V17.9446C27.0556 22.2396 27.0556 24.3871 25.7213 25.7214C24.387 27.0557 22.2395 27.0557 17.9445 27.0557H13.3889C9.09392 27.0557 6.94641 27.0557 5.61212 25.7214C4.27783 24.3871 4.27783 22.2396 4.27783 17.9446V15.6668Z" stroke="#4B4B4B" stroke-width="2.5"/>
<path d="M9.97217 6.55599V4.84766" stroke="#4B4B4B" stroke-width="2.5" stroke-linecap="round"/>
<path d="M21.3611 6.55599V4.84766" stroke="#4B4B4B" stroke-width="2.5" stroke-linecap="round"/>
<path d="M4.84717 12.25H26.4861" stroke="#4B4B4B" stroke-width="2.5" stroke-linecap="round"/>
</svg>
