<svg width="24" height="25" viewBox="0 0 24 25" fill="none" xmlns="http://www.w3.org/2000/svg">
<g clip-path="url(#clip0_209_8114)">
<path d="M18.3002 6.20973C17.9102 5.81973 17.2802 5.81973 16.8902 6.20973L12.0002 11.0897L7.11022 6.19973C6.72022 5.80973 6.09021 5.80973 5.70021 6.19973C5.31021 6.58973 5.31021 7.21973 5.70021 7.60973L10.5902 12.4997L5.70021 17.3897C5.31021 17.7797 5.31021 18.4097 5.70021 18.7997C6.09021 19.1897 6.72022 19.1897 7.11022 18.7997L12.0002 13.9097L16.8902 18.7997C17.2802 19.1897 17.9102 19.1897 18.3002 18.7997C18.6902 18.4097 18.6902 17.7797 18.3002 17.3897L13.4102 12.4997L18.3002 7.60973C18.6802 7.22973 18.6802 6.58973 18.3002 6.20973Z" fill="#111322"/>
</g>
<defs>
<clipPath id="clip0_209_8114">
<rect width="24" height="24" fill="white" transform="translate(0 0.5)"/>
</clipPath>
</defs>
</svg>
