<svg width="240" height="240" viewBox="0 0 240 240" fill="none" xmlns="http://www.w3.org/2000/svg">
<path fill-rule="evenodd" clip-rule="evenodd" d="M55 161.168V75.9736L99.9736 31H161.397C174.652 31 185.397 41.7452 185.397 55V143.29V161.168V184.259C185.397 197.514 174.652 208.259 161.397 208.259H79C65.7452 208.259 55 197.514 55 184.259V161.184C55 161.179 55 161.173 55 161.168Z" fill="#DDDDDD"/>
<path fill-rule="evenodd" clip-rule="evenodd" d="M58.782 77.8616C56.1009 77.8616 54.7662 74.6129 56.6729 72.7281L96.7525 33.1074C98.6473 31.2342 101.862 32.5765 101.862 35.2409V53.8615C101.862 67.1164 91.1164 77.8616 77.8616 77.8616H58.782Z" fill="#79747E"/>
</svg>
