<svg width="48" height="48" viewBox="0 0 48 48" fill="none" xmlns="http://www.w3.org/2000/svg">
<g clip-path="url(#clip0_130_2)">
<path d="M9.9562 8.0719C8.84995 8.28752 7.8562 9.05627 7.34995 10.0781L7.07807 10.6406L7.04995 20.8125C7.0312 29.9438 7.04057 31.0313 7.1812 31.4531C7.5187 32.5031 8.29682 33.3469 9.34682 33.7688L9.89057 33.9844L17.4843 34.0313L25.0687 34.0781L25.1812 34.6406C25.3499 35.4844 25.7343 36.4313 26.2218 37.2094C28.6124 41.0344 33.6656 42.1313 37.4343 39.6282C40.5656 37.5375 41.7937 33.5907 40.4062 30.0282C40.0312 29.0438 39.4781 28.2188 38.6343 27.3657C36.9562 25.6969 35.0437 24.9563 32.6249 25.05C31.6312 25.0875 31.3218 25.1438 30.5624 25.3969C29.2312 25.8469 28.4062 26.3531 27.4218 27.3282C26.2218 28.5094 25.4999 29.8125 25.1812 31.3594L25.0593 31.9219L17.6343 31.95C10.4062 31.9688 10.1999 31.9688 9.85307 31.7813C9.41245 31.5656 9.08432 31.0594 9.02807 30.525L8.9812 30.1313L12.3187 26.85C16.0031 23.2406 16.1437 23.1281 17.2031 23.1188C18.1312 23.1 18.5624 23.3344 19.7343 24.4594C20.9812 25.6688 21.4031 25.8469 22.3499 25.5844C22.6499 25.5 23.2406 24.9656 25.5281 22.7156C27.0843 21.1875 28.5656 19.8 28.8281 19.6219C29.5874 19.125 30.2249 18.9188 31.1812 18.8625C32.5499 18.7875 33.6656 19.1531 34.5187 19.95C34.9124 20.3156 34.9687 20.4188 34.9687 20.7375C34.9687 21.2625 35.2031 21.7125 35.5781 21.8813C35.7468 21.9656 35.9343 22.0313 35.9999 22.0313C36.0656 22.0313 36.2531 21.9656 36.4218 21.8813C37.0406 21.5906 37.0312 21.6375 37.0312 16.3406C37.0312 13.3031 36.9937 11.3625 36.9281 11.0063C36.6562 9.5344 35.5406 8.39065 34.0499 8.0719C33.4499 7.95002 10.5937 7.94065 9.9562 8.0719ZM34.2749 10.275C34.4156 10.3781 34.6218 10.5844 34.7249 10.725C34.9124 10.9688 34.9218 11.1188 34.9499 14.3531C34.9593 16.2 34.9499 17.7188 34.9218 17.7188C34.8937 17.7188 34.6874 17.625 34.4812 17.5219C32.4187 16.4719 29.7749 16.6313 27.7593 17.925C27.3656 18.1781 26.1749 19.2844 24.4687 20.9625L21.7968 23.6063L20.9531 22.8C19.3874 21.2906 17.9156 20.8219 16.1437 21.2344C14.8968 21.5344 14.6624 21.7125 11.4656 24.8813L8.99995 27.3188V19.2938V11.2781L9.21557 10.8656C9.3562 10.6125 9.57182 10.3781 9.8062 10.2469L10.1718 10.0313L22.0968 10.0594C33.9749 10.0781 34.0218 10.0781 34.2749 10.275ZM34.1999 27.1407C36.0187 27.5157 37.5281 28.6875 38.3437 30.3375C39.5062 32.6813 39.0656 35.3813 37.2281 37.2282C34.8562 39.5907 31.1531 39.5907 28.7718 37.2188C25.8468 34.3032 26.6812 29.4188 30.4218 27.6094C31.5937 27.0469 32.9437 26.8688 34.1999 27.1407Z" fill="#4B4B4B"/>
<path d="M15.8344 11.4657C14.8219 11.7563 13.7812 12.6938 13.3969 13.6688C13.1062 14.3813 13.0875 15.5813 13.35 16.2844C13.7156 17.2688 14.6625 18.2063 15.6094 18.5344C16.3031 18.7782 17.5219 18.75 18.2156 18.4782C18.975 18.1782 19.7906 17.4 20.175 16.6125C20.4656 16.0313 20.4844 15.9188 20.4844 15.0469C20.4844 14.1938 20.4562 14.0532 20.1937 13.5C19.5844 12.2157 18.4031 11.4282 17.0156 11.3719C16.5937 11.3625 16.0781 11.4 15.8344 11.4657ZM17.4187 13.4532C17.8781 13.65 18.1781 13.9407 18.3844 14.3907C18.6 14.8688 18.6 15.225 18.3844 15.7032C17.9437 16.6782 16.7719 17.0438 15.9187 16.4625C14.7844 15.6938 14.9156 14.0532 16.1719 13.4907C16.6312 13.275 16.9594 13.2657 17.4187 13.4532Z" fill="#4B4B4B"/>
<path d="M32.7563 29.0343C32.6531 29.053 31.7156 29.9249 30.675 30.9749C28.9875 32.6624 28.7812 32.9062 28.7812 33.178C28.7812 33.8062 29.175 34.2093 29.7938 34.2187C30.1781 34.2187 30.2438 34.1718 31.0781 33.3655L31.9688 32.503V34.3124C31.9688 36.3562 32.0344 36.628 32.5875 36.8905C33.0094 37.0874 33.3656 37.0124 33.7125 36.6468L33.9844 36.3655L34.0125 34.4343L34.0406 32.5124L34.9125 33.3655C35.7375 34.1718 35.8125 34.2187 36.1781 34.2187C36.8719 34.2187 37.3969 33.478 37.1156 32.8968C37.0406 32.7468 36.2063 31.8468 35.25 30.8812C33.7125 29.3343 33.2438 28.9405 33.0188 28.978C32.9813 28.9874 32.8688 29.0155 32.7563 29.0343Z" fill="#4B4B4B"/>
</g>
<defs>
<clipPath id="clip0_130_2">
<rect width="48" height="48" fill="white"/>
</clipPath>
</defs>
</svg>
