<svg width="72" height="72" viewBox="0 0 72 72" fill="none" xmlns="http://www.w3.org/2000/svg">
<circle cx="36" cy="35.998" r="35.25" stroke="#F2F2F2" stroke-width="1.5"/>
<g clip-path="url(#clip0_15261_5196)">
<path fill-rule="evenodd" clip-rule="evenodd" d="M49.5006 36.3053C49.5017 35.379 49.4179 34.4545 49.2501 33.543H36.2725V38.7649H43.6866C43.5327 39.59 43.2098 40.3761 42.7374 41.0755C42.265 41.775 41.6528 42.3734 40.9379 42.8346V46.2227H45.3893C47.9939 43.8724 49.4967 40.4106 49.4967 36.3027L49.5006 36.3053Z" fill="#3E82F1"/>
<path fill-rule="evenodd" clip-rule="evenodd" d="M36.2759 49.4973C39.9953 49.4973 43.1139 48.2891 45.3927 46.2275L40.9414 42.8395C39.7072 43.6496 38.1291 44.1291 36.2759 44.1291C32.6876 44.1291 29.6508 41.7534 28.5685 38.5625H23.9653V42.0612C25.112 44.2973 26.8706 46.177 29.0445 47.4901C31.2185 48.8033 33.7222 49.4982 36.2759 49.4973Z" fill="#32A753"/>
<path fill-rule="evenodd" clip-rule="evenodd" d="M28.5683 38.5614C27.9921 36.8983 27.9921 35.0954 28.5683 33.4323V29.9336H23.9651C23.0017 31.8153 22.5 33.8915 22.5 35.9968C22.5 38.1021 23.0017 40.1783 23.9651 42.0601L28.5683 38.5614Z" fill="#F9BB00"/>
<path fill-rule="evenodd" clip-rule="evenodd" d="M36.2758 27.8662C38.299 27.8662 40.1146 28.5479 41.5421 29.8858L45.4925 26.0133C43.1072 23.8347 39.9887 22.498 36.2784 22.498C33.7246 22.4971 31.2209 23.192 29.047 24.5052C26.873 25.8184 25.1145 27.698 23.9678 29.9342L28.5709 33.4329C29.6533 30.2419 32.6901 27.8662 36.2784 27.8662H36.2758Z" fill="#E74133"/>
</g>
<defs>
<clipPath id="clip0_15261_5196">
<rect width="27" height="27" fill="white" transform="translate(22.5 22.498)"/>
</clipPath>
</defs>
</svg>
