<svg width="128" height="126" viewBox="0 0 128 126" fill="none" xmlns="http://www.w3.org/2000/svg">
<path fill-rule="evenodd" clip-rule="evenodd" d="M64.2908 0C99.4325 0 127.92 28.1092 127.92 62.7836C127.92 97.458 99.4325 125.567 64.2908 125.567C29.1495 125.567 0.661621 97.458 0.661621 62.7836C0.661621 28.1092 29.1495 0 64.2908 0ZM61.9908 4.69805C54.7323 5.70605 47.8203 11.4614 42.4545 21.0871C40.8982 23.8792 39.4938 26.9638 38.27 30.2946C45.5659 28.4853 53.5802 27.4189 61.9908 27.254V4.69805ZM32.8924 31.8025C34.4142 27.0898 36.2757 22.754 38.4243 18.8999C41.0842 14.1281 44.2408 10.0076 47.7971 6.84269C28.4574 12.3848 13.2132 27.4263 7.59648 46.5092C10.8039 42.9998 14.9801 39.8852 19.8161 37.2608C23.7222 35.1409 28.1163 33.3038 32.8924 31.8025ZM31.364 37.1084C29.5308 44.3074 28.4499 52.2153 28.2827 60.5142H5.42296C6.44454 53.3515 12.2774 46.5316 22.0328 41.2377C24.8625 39.7018 27.9887 38.3161 31.364 37.1084ZM32.8836 60.5142C33.0735 51.4574 34.3947 42.9546 36.5809 35.442C44.1949 33.2848 52.8128 31.9808 61.9908 31.7933V41.5968C58.5667 50.2461 51.5828 57.137 42.8163 60.5142H32.8836ZM28.2827 65.053H5.42296C6.44454 72.2156 12.2774 79.0353 22.0328 84.3295C24.8625 85.8653 27.9887 87.2508 31.364 88.4587C29.5308 81.2598 28.4499 73.3519 28.2827 65.053ZM36.5809 90.1254C34.3947 82.6126 33.0735 74.1097 32.8836 65.053H42.8163C51.5828 68.4302 58.5672 75.3211 61.9908 83.9707V93.7741C52.8128 93.5866 44.1949 92.2821 36.5809 90.1254ZM32.8924 93.7649C28.1163 92.2634 23.7222 90.4262 19.8161 88.3066C14.9801 85.6823 10.8039 82.5671 7.59648 79.0579C13.2132 98.1408 28.4574 113.182 47.7971 118.724C44.2408 115.559 41.0842 111.439 38.4243 106.667C36.2757 102.813 34.4142 98.4776 32.8924 93.7649ZM61.9908 120.869C54.7323 119.861 47.8203 114.106 42.4545 104.48C40.8982 101.688 39.4938 98.6032 38.27 95.2726C45.5659 97.0818 53.5802 98.148 61.9908 98.3132V120.869ZM80.7845 118.724C84.3409 115.559 87.4981 111.439 90.1576 106.667C92.3059 102.813 94.1678 98.4776 95.6896 93.7649C100.466 92.2634 104.859 90.4262 108.766 88.3066C113.602 85.6823 117.778 82.5671 120.985 79.0579C115.369 98.1408 100.124 113.182 80.7845 118.724ZM90.3119 95.2726C89.0876 98.6032 87.6835 101.688 86.1271 104.48C80.7622 114.106 73.8499 119.861 66.5909 120.869V98.3132C75.0018 98.148 83.0161 97.0818 90.3119 95.2726ZM97.2177 88.4587C100.593 87.2508 103.719 85.8653 106.549 84.3295C116.304 79.0353 122.137 72.2156 123.159 65.053H100.299C100.132 73.3519 99.0512 81.2598 97.2177 88.4587ZM95.6987 65.053C95.509 74.1097 94.1867 82.6126 92.0011 90.1254C84.387 92.2821 75.7695 93.5866 66.5909 93.7741V83.9779C70.0136 75.325 76.9992 68.4313 85.7682 65.053H95.6987ZM100.299 60.5142H123.159C122.137 53.3515 116.304 46.5316 106.549 41.2377C103.719 39.7018 100.593 38.3161 97.2177 37.1084C99.0512 44.3074 100.132 52.2153 100.299 60.5142ZM92.0011 35.442C94.1867 42.9546 95.509 51.4574 95.6987 60.5142H85.7682C76.9992 57.1359 70.0136 50.2422 66.5909 41.5895V31.7933C75.7695 31.9808 84.387 33.2848 92.0011 35.442ZM95.6896 31.8025C100.466 33.3038 104.859 35.1409 108.766 37.2608C113.602 39.8852 117.778 42.9998 120.985 46.5092C115.369 27.4263 100.124 12.3848 80.7845 6.84269C84.3409 10.0076 87.4981 14.1281 90.1576 18.8999C92.3059 22.754 94.1678 27.0898 95.6896 31.8025ZM66.5909 4.69805C73.8499 5.70605 80.7622 11.4614 86.1271 21.0871C87.6835 23.8792 89.0876 26.9638 90.3119 30.2946C83.0161 28.4853 75.0018 27.4189 66.5909 27.254V4.69805Z" fill="#0B3B2D"/>
</svg>
