<svg width="166" height="28" viewBox="0 0 166 28" fill="none" xmlns="http://www.w3.org/2000/svg">
<mask id="mask0_32_9" style="mask-type:luminance" maskUnits="userSpaceOnUse" x="0" y="0" width="166" height="28">
<path d="M165.755 0H0.244141V28H165.755V0Z" fill="white"/>
</mask>
<g mask="url(#mask0_32_9)">
<path d="M163.221 12.0228C164.479 12.0228 165.497 11.0028 165.497 9.7447C165.497 8.48662 164.479 7.4668 163.221 7.4668C161.965 7.4668 160.946 8.48662 160.946 9.7447C160.946 11.0028 161.965 12.0228 163.221 12.0228Z" fill="white"/>
<path d="M43.4465 20.681C42.4344 20.681 41.5017 20.5223 40.6482 20.205C39.8069 19.8754 39.0692 19.4116 38.4352 18.8136C37.8134 18.2156 37.3257 17.5137 36.972 16.7082C36.6307 15.9027 36.46 15.0177 36.46 14.0536C36.46 13.0894 36.6307 12.2045 36.972 11.399C37.3257 10.5934 37.8195 9.8916 38.4535 9.2936C39.0875 8.69552 39.8313 8.23788 40.6848 7.92048C41.5383 7.59095 42.4772 7.42619 43.5013 7.42619C44.6353 7.42619 45.6534 7.61541 46.5556 7.99372C47.4701 8.37209 48.2383 8.92133 48.8601 9.6414L46.958 11.399C46.4947 10.9108 45.9887 10.5507 45.44 10.3188C44.8913 10.0747 44.2939 9.9527 43.6477 9.9527C43.0258 9.9527 42.4589 10.0503 41.9468 10.2456C41.4347 10.4409 40.9896 10.7216 40.6116 11.0877C40.2459 11.4539 39.9593 11.8871 39.752 12.3876C39.557 12.8881 39.4594 13.4433 39.4594 14.0536C39.4594 14.6516 39.557 15.2009 39.752 15.7013C39.9593 16.2017 40.2459 16.6411 40.6116 17.0194C40.9896 17.3856 41.4285 17.6663 41.9285 17.8616C42.4406 18.0569 43.0014 18.1545 43.6111 18.1545C44.1964 18.1545 44.7633 18.063 45.312 17.8799C45.8728 17.6846 46.4155 17.3611 46.9397 16.9096L48.6224 19.0516C47.9274 19.5764 47.1165 19.9791 46.1899 20.2599C45.2754 20.5406 44.3609 20.681 43.4465 20.681ZM45.9156 18.6671V13.8522H48.6224V19.0516L45.9156 18.6671ZM50.4419 20.4613V6.87695H53.2949V20.4613H50.4419ZM59.8934 20.6077C58.8448 20.6077 57.9121 20.3881 57.0951 19.9487C56.2904 19.5093 55.6503 18.9113 55.1748 18.1545C54.7114 17.3856 54.4798 16.5129 54.4798 15.5365C54.4798 14.5479 54.7114 13.6753 55.1748 12.9185C55.6503 12.1496 56.2904 11.5516 57.0951 11.1244C57.9121 10.685 58.8448 10.4653 59.8934 10.4653C60.9298 10.4653 61.8565 10.685 62.6735 11.1244C63.4905 11.5516 64.1301 12.1434 64.5937 12.9002C65.0572 13.6569 65.2887 14.5357 65.2887 15.5365C65.2887 16.5129 65.0572 17.3856 64.5937 18.1545C64.1301 18.9113 63.4905 19.5093 62.6735 19.9487C61.8565 20.3881 60.9298 20.6077 59.8934 20.6077ZM59.8934 18.2644C60.369 18.2644 60.7958 18.1545 61.1737 17.9348C61.5516 17.7151 61.8504 17.4039 62.0699 17.0011C62.2893 16.5862 62.399 16.0979 62.399 15.5365C62.399 14.9629 62.2893 14.4747 62.0699 14.0719C61.8504 13.6691 61.5516 13.3579 61.1737 13.1382C60.7958 12.9185 60.369 12.8087 59.8934 12.8087C59.4179 12.8087 58.9911 12.9185 58.6132 13.1382C58.2353 13.3579 57.9304 13.6691 57.6987 14.0719C57.4792 14.4747 57.3695 14.9629 57.3695 15.5365C57.3695 16.0979 57.4792 16.5862 57.6987 17.0011C57.9304 17.4039 58.2353 17.7151 58.6132 17.9348C58.9911 18.1545 59.4179 18.2644 59.8934 18.2644ZM72.2806 20.6077C71.4145 20.6077 70.6709 20.4247 70.0493 20.0585C69.4271 19.6924 68.9517 19.137 68.6226 18.3925C68.2934 17.6357 68.1285 16.6837 68.1285 15.5365C68.1285 14.377 68.299 13.425 68.6406 12.6805C68.994 11.9361 69.4819 11.3807 70.1041 11.0145C70.7257 10.6484 71.4512 10.4653 72.2806 10.4653C73.2071 10.4653 74.0359 10.6728 74.7676 11.0877C75.5112 11.5027 76.0967 12.0885 76.5235 12.8453C76.9622 13.6021 77.1819 14.4991 77.1819 15.5365C77.1819 16.5617 76.9622 17.4527 76.5235 18.2094C76.0967 18.9662 75.5112 19.5581 74.7676 19.9853C74.0359 20.4002 73.2071 20.6077 72.2806 20.6077ZM66.4641 20.4613V6.87695H69.3176V12.6073L69.1347 15.5182L69.1894 18.4474V20.4613H66.4641ZM71.7866 18.2644C72.2619 18.2644 72.6826 18.1545 73.0484 17.9348C73.4267 17.7151 73.7254 17.4039 73.9444 17.0011C74.1765 16.5862 74.2923 16.0979 74.2923 15.5365C74.2923 14.9629 74.1765 14.4747 73.9444 14.0719C73.7254 13.6691 73.4267 13.3579 73.0484 13.1382C72.6826 12.9185 72.2619 12.8087 71.7866 12.8087C71.3112 12.8087 70.8843 12.9185 70.506 13.1382C70.1283 13.3579 69.8297 13.6691 69.61 14.0719C69.3904 14.4747 69.2809 14.9629 69.2809 15.5365C69.2809 16.0979 69.3904 16.5862 69.61 17.0011C69.8297 17.4039 70.1283 17.7151 70.506 17.9348C70.8843 18.1545 71.3112 18.2644 71.7866 18.2644ZM84.2347 20.4613V18.539L84.0518 18.1179V14.6761C84.0518 14.0657 83.8633 13.5897 83.485 13.2481C83.1191 12.9063 82.5523 12.7354 81.7844 12.7354C81.2599 12.7354 80.7416 12.8209 80.2295 12.9917C79.7299 13.1504 79.303 13.3701 78.9496 13.6508L77.9254 11.6553C78.4618 11.2769 79.1076 10.9841 79.8636 10.7765C80.6196 10.569 81.3881 10.4653 82.1683 10.4653C83.6679 10.4653 84.8327 10.8193 85.6615 11.5271C86.4909 12.235 86.9053 13.3396 86.9053 14.8408V20.4613H84.2347ZM81.2356 20.6077C80.4672 20.6077 79.8089 20.4796 79.2601 20.2233C78.7119 19.9548 78.2913 19.5947 77.9982 19.1431C77.7058 18.6916 77.5595 18.185 77.5595 17.6236C77.5595 17.0377 77.6995 16.5251 77.9802 16.0857C78.2726 15.6464 78.7299 15.3046 79.3515 15.0605C79.9738 14.8042 80.7845 14.6761 81.7844 14.6761H84.3996V16.3421H82.0949C81.4242 16.3421 80.9612 16.4519 80.7049 16.6716C80.461 16.8913 80.3396 17.1659 80.3396 17.4954C80.3396 17.8616 80.4796 18.1545 80.7603 18.3742C81.0527 18.5817 81.4491 18.6854 81.9487 18.6854C82.4241 18.6854 82.8509 18.5756 83.2292 18.3559C83.6069 18.1241 83.8813 17.7884 84.0518 17.349L84.4911 18.6671C84.2839 19.3017 83.9056 19.7839 83.3574 20.1134C82.8086 20.443 82.1011 20.6077 81.2356 20.6077ZM88.7558 20.4613V6.87695H91.6087V20.4613H88.7558ZM93.7267 20.4613V7.6459H96.1771L103.731 16.873H102.542V7.6459H105.468V20.4613H103.036L95.464 11.2342H96.653V20.4613H93.7267ZM112.247 20.6077C111.198 20.6077 110.265 20.3881 109.448 19.9487C108.644 19.5093 108.004 18.9113 107.528 18.1545C107.064 17.3856 106.833 16.5129 106.833 15.5365C106.833 14.5479 107.064 13.6753 107.528 12.9185C108.004 12.1496 108.644 11.5516 109.448 11.1244C110.265 10.685 111.198 10.4653 112.247 10.4653C113.283 10.4653 114.21 10.685 115.027 11.1244C115.843 11.5516 116.483 12.1434 116.947 12.9002C117.41 13.6569 117.642 14.5357 117.642 15.5365C117.642 16.5129 117.41 17.3856 116.947 18.1545C116.483 18.9113 115.843 19.5093 115.027 19.9487C114.21 20.3881 113.283 20.6077 112.247 20.6077ZM112.247 18.2644C112.722 18.2644 113.149 18.1545 113.527 17.9348C113.904 17.7151 114.203 17.4039 114.423 17.0011C114.643 16.5862 114.752 16.0979 114.752 15.5365C114.752 14.9629 114.643 14.4747 114.423 14.0719C114.203 13.6691 113.904 13.3579 113.527 13.1382C113.149 12.9185 112.722 12.8087 112.247 12.8087C111.771 12.8087 111.344 12.9185 110.966 13.1382C110.589 13.3579 110.283 13.6691 110.052 14.0719C109.832 14.4747 109.723 14.9629 109.723 15.5365C109.723 16.0979 109.832 16.5862 110.052 17.0011C110.283 17.4039 110.589 17.7151 110.966 17.9348C111.344 18.1545 111.771 18.2644 112.247 18.2644ZM131.419 10.4653C132.199 10.4653 132.888 10.624 133.486 10.9413C134.095 11.2464 134.57 11.7224 134.912 12.3693C135.265 13.0039 135.443 13.8217 135.443 14.8225V20.4613H132.59V15.2619C132.59 14.4685 132.425 13.8827 132.096 13.5044C131.767 13.1261 131.303 12.9368 130.706 12.9368C130.29 12.9368 129.92 13.0345 129.59 13.2297C129.261 13.4128 129.005 13.6936 128.822 14.0719C128.639 14.4502 128.548 14.9324 128.548 15.5182V20.4613H125.695V15.2619C125.695 14.4685 125.53 13.8827 125.201 13.5044C124.883 13.1261 124.426 12.9368 123.829 12.9368C123.414 12.9368 123.043 13.0345 122.714 13.2297C122.384 13.4128 122.128 13.6936 121.945 14.0719C121.762 14.4502 121.671 14.9324 121.671 15.5182V20.4613H118.818V10.6117H121.543V13.303L121.031 12.5157C121.372 11.8445 121.854 11.3379 122.476 10.9962C123.109 10.6423 123.829 10.4653 124.634 10.4653C125.535 10.4653 126.322 10.6971 126.993 11.161C127.675 11.6125 128.127 12.3082 128.347 13.2481L127.34 12.9734C127.67 12.2045 128.194 11.5942 128.913 11.1427C129.645 10.6911 130.48 10.4653 131.419 10.4653ZM143.304 20.4613V18.539L143.121 18.1179V14.6761C143.121 14.0657 142.932 13.5897 142.554 13.2481C142.189 12.9063 141.622 12.7354 140.853 12.7354C140.328 12.7354 139.811 12.8209 139.299 12.9917C138.799 13.1504 138.371 13.3701 138.018 13.6508L136.994 11.6553C137.53 11.2769 138.176 10.9841 138.933 10.7765C139.688 10.569 140.456 10.4653 141.237 10.4653C142.737 10.4653 143.901 10.8193 144.73 11.5271C145.559 12.235 145.974 13.3396 145.974 14.8408V20.4613H143.304ZM140.304 20.6077C139.537 20.6077 138.878 20.4796 138.33 20.2233C137.781 19.9548 137.36 19.5947 137.068 19.1431C136.775 18.6916 136.628 18.185 136.628 17.6236C136.628 17.0377 136.768 16.5251 137.049 16.0857C137.341 15.6464 137.799 15.3046 138.421 15.0605C139.043 14.8042 139.853 14.6761 140.853 14.6761H143.468V16.3421H141.164C140.493 16.3421 140.03 16.4519 139.774 16.6716C139.53 16.8913 139.408 17.1659 139.408 17.4954C139.408 17.8616 139.548 18.1545 139.829 18.3742C140.121 18.5817 140.518 18.6854 141.018 18.6854C141.494 18.6854 141.919 18.5756 142.298 18.3559C142.676 18.1241 142.95 17.7884 143.121 17.349L143.56 18.6671C143.353 19.3017 142.975 19.7839 142.426 20.1134C141.877 20.443 141.169 20.6077 140.304 20.6077ZM152.12 20.6077C151.194 20.6077 150.36 20.4002 149.615 19.9853C148.872 19.5581 148.28 18.9662 147.841 18.2094C147.415 17.4527 147.201 16.5617 147.201 15.5365C147.201 14.4991 147.415 13.6021 147.841 12.8453C148.28 12.0885 148.872 11.5027 149.615 11.0877C150.36 10.6728 151.194 10.4653 152.12 10.4653C152.95 10.4653 153.675 10.6484 154.297 11.0145C154.919 11.3807 155.401 11.9361 155.742 12.6805C156.084 13.425 156.254 14.377 156.254 15.5365C156.254 16.6837 156.09 17.6357 155.76 18.3925C155.431 19.137 154.955 19.6924 154.334 20.0585C153.725 20.4247 152.987 20.6077 152.12 20.6077ZM152.614 18.2644C153.078 18.2644 153.499 18.1545 153.876 17.9348C154.255 17.7151 154.553 17.4039 154.772 17.0011C155.005 16.5862 155.12 16.0979 155.12 15.5365C155.12 14.9629 155.005 14.4747 154.772 14.0719C154.553 13.6691 154.255 13.3579 153.876 13.1382C153.499 12.9185 153.078 12.8087 152.614 12.8087C152.139 12.8087 151.713 12.9185 151.334 13.1382C150.956 13.3579 150.652 13.6691 150.42 14.0719C150.2 14.4747 150.091 14.9629 150.091 15.5365C150.091 16.0979 150.2 16.5862 150.42 17.0011C150.652 17.4039 150.956 17.7151 151.334 17.9348C151.713 18.1545 152.139 18.2644 152.614 18.2644ZM155.193 20.4613V18.4474L155.248 15.5182L155.065 12.6073V6.87695H157.918V20.4613H155.193Z" fill="white"/>
<path fill-rule="evenodd" clip-rule="evenodd" d="M14.2301 0C21.9543 0 28.216 6.26802 28.216 14C28.216 21.732 21.9543 28 14.2301 28C6.50587 28 0.244141 21.732 0.244141 14C0.244141 6.26802 6.50587 0 14.2301 0ZM13.7245 1.04761C12.1291 1.27238 10.6098 2.55575 9.4304 4.70218C9.0883 5.32478 8.7796 6.01262 8.5106 6.75534C10.1143 6.35189 11.8758 6.11409 13.7245 6.07731V1.04761ZM7.3286 7.09159C7.6631 6.04071 8.0723 5.07388 8.5445 4.21445C9.1292 3.15041 9.823 2.23157 10.6047 1.52584C6.35377 2.76166 3.00303 6.11575 1.76845 10.371C2.47346 9.5884 3.3914 8.89392 4.45438 8.30872C5.31293 7.83602 6.27878 7.42635 7.3286 7.09159ZM6.99264 8.27475C6.58969 9.88 6.3521 11.6434 6.31536 13.4939H1.2907C1.51525 11.8968 2.79733 10.376 4.9416 9.1955C5.56358 8.85304 6.25073 8.54404 6.99264 8.27475ZM7.3266 13.4939C7.3684 11.4744 7.6588 9.5784 8.1393 7.90316C9.8129 7.42212 11.7072 7.13135 13.7245 7.08954V9.2756C12.9719 11.2043 11.4368 12.7409 9.5099 13.4939H7.3266ZM6.31536 14.5061H1.2907C1.51525 16.1032 2.79733 17.6239 4.9416 18.8045C5.56358 19.147 6.25073 19.4559 6.99264 19.7253C6.58969 18.12 6.3521 16.3566 6.31536 14.5061ZM8.1393 20.0969C7.6588 18.4216 7.3684 16.5256 7.3266 14.5061H9.5099C11.4368 15.2591 12.972 16.7957 13.7245 18.7245V20.9105C11.7072 20.8687 9.8129 20.5778 8.1393 20.0969ZM7.3286 20.9085C6.27878 20.5737 5.31293 20.164 4.45438 19.6913C3.3914 19.1061 2.47346 18.4115 1.76845 17.629C3.00303 21.8842 6.35377 25.2383 10.6047 26.4741C9.823 25.7684 9.1292 24.8496 8.5445 23.7854C8.0723 22.9261 7.6631 21.9593 7.3286 20.9085ZM13.7245 26.9524C12.1291 26.7276 10.6098 25.4442 9.4304 23.2978C9.0883 22.6753 8.7796 21.9873 8.5106 21.2447C10.1143 21.6481 11.8758 21.8859 13.7245 21.9227V26.9524ZM17.8555 26.4741C18.6372 25.7684 19.3311 24.8496 19.9157 23.7854C20.3879 22.9261 20.7971 21.9593 21.1316 20.9085C22.1815 20.5737 23.1472 20.164 24.0058 19.6913C25.0688 19.1061 25.9868 18.4115 26.6917 17.629C25.4571 21.8842 22.1064 25.2383 17.8555 26.4741ZM19.9496 21.2447C19.6805 21.9873 19.3719 22.6753 19.0298 23.2978C17.8505 25.4442 16.3312 26.7276 14.7356 26.9524V21.9227C16.5844 21.8859 18.346 21.6481 19.9496 21.2447ZM21.4675 19.7253C22.2094 19.4559 22.8966 19.147 23.5186 18.8045C25.6628 17.6239 26.9449 16.1032 27.1694 14.5061H22.1449C22.108 16.3566 21.8705 18.12 21.4675 19.7253ZM21.1336 14.5061C21.0919 16.5256 20.8013 18.4216 20.3209 20.0969C18.6473 20.5778 16.7531 20.8687 14.7356 20.9105V18.7261C15.488 16.7966 17.0234 15.2594 18.9509 14.5061H21.1336ZM22.1449 13.4939H27.1694C26.9449 11.8968 25.6628 10.376 23.5186 9.1955C22.8966 8.85304 22.2094 8.54404 21.4675 8.27475C21.8705 9.88 22.108 11.6434 22.1449 13.4939ZM20.3209 7.90316C20.8013 9.5784 21.0919 11.4744 21.1336 13.4939H18.9509C17.0234 12.7406 15.488 11.2034 14.7356 9.274V7.08954C16.7531 7.13135 18.6473 7.42212 20.3209 7.90316ZM21.1316 7.09159C22.1815 7.42635 23.1472 7.83602 24.0058 8.30872C25.0688 8.89392 25.9868 9.5884 26.6917 10.371C25.4571 6.11575 22.1064 2.76166 17.8555 1.52584C18.6372 2.23157 19.3311 3.15041 19.9157 4.21445C20.3879 5.07388 20.7971 6.04071 21.1316 7.09159ZM14.7356 1.04761C16.3312 1.27238 17.8505 2.55575 19.0298 4.70218C19.3719 5.32479 19.6805 6.01262 19.9496 6.75534C18.346 6.35189 16.5844 6.11409 14.7356 6.07731V1.04761Z" fill="white"/>
</g>
</svg>
