<svg width="123" height="129" viewBox="0 0 123 129" fill="none" xmlns="http://www.w3.org/2000/svg">
<g clip-path="url(#clip0_32_14)">
<path fill-rule="evenodd" clip-rule="evenodd" d="M21.19 22.46C25.19 25.69 26.67 25.46 34.19 24.95L104.72 20.71C106.22 20.71 104.97 19.22 104.47 18.97L92.72 10.5C91.2156 9.22017 89.4588 8.2712 87.5636 7.71472C85.6685 7.15824 83.6775 7.00671 81.72 7.26998L13.43 12.27C10.94 12.51 10.43 13.76 11.43 14.76L21.16 22.48L21.19 22.46ZM25.42 38.9V113.11C25.42 117.11 27.42 118.59 31.9 118.34L109.42 113.86C113.91 113.61 114.42 110.86 114.42 107.63V33.91C114.42 30.68 113.17 28.91 110.42 29.18L29.42 33.91C26.42 34.16 25.42 35.66 25.42 38.91V38.9ZM101.95 42.9C102.44 45.14 101.95 47.38 99.7 47.63L96 48.36V103.15C92.76 104.89 89.77 105.88 87.28 105.88C83.28 105.88 82.28 104.64 79.28 100.88L54.83 62.55V99.66L62.56 101.4C62.56 101.4 62.56 105.88 56.33 105.88L39.13 106.88C38.63 105.88 39.13 103.4 40.88 102.88L45.36 101.63V52.59L39.13 52.09C38.9728 51.4295 38.9617 50.7426 39.0977 50.0773C39.2337 49.4121 39.5135 48.7847 39.9173 48.2389C40.3212 47.6931 40.8395 47.2421 41.4359 46.9176C42.0323 46.593 42.6924 46.4027 43.37 46.36L61.81 45.12L87.24 84V49.6L80.76 48.86C80.6455 48.2622 80.6619 47.6467 80.8082 47.0559C80.9545 46.4652 81.2271 45.9131 81.6073 45.4379C81.9876 44.9626 82.4663 44.5754 83.0106 44.303C83.5548 44.0306 84.1517 43.8795 84.76 43.86L101.97 42.86L101.95 42.9ZM7.72 5.51998L78.72 0.289978C87.49 -0.460022 89.73 0.049978 95.21 3.99998L117.89 20C121.63 22.74 122.89 23.48 122.89 26.47V113.89C122.89 119.36 120.89 122.6 113.89 123.1L31.39 128.1C26.15 128.35 23.66 127.6 20.92 124.1L4.24 102.4C1.24 98.4 0 95.4 0 91.94V14.24C0 9.75998 2 5.99998 7.72 5.51998Z" fill="white"/>
</g>
<defs>
<clipPath id="clip0_32_14">
<rect width="122.88" height="128.1" fill="white"/>
</clipPath>
</defs>
</svg>
