<svg width="40" height="40" viewBox="0 0 40 40" fill="none" xmlns="http://www.w3.org/2000/svg">
<path d="M0 0H34C37.3137 0 40 2.68629 40 6V34C40 37.3137 37.3137 40 34 40H0V0Z" fill="white"/>
<path d="M20.833 14.1663C20.833 13.7061 20.4599 13.333 19.9997 13.333C19.5394 13.333 19.1663 13.7061 19.1663 14.1663V19.1663H14.1663C13.7061 19.1663 13.333 19.5394 13.333 19.9997C13.333 20.4599 13.7061 20.833 14.1663 20.833H19.1663V25.833C19.1663 26.2932 19.5394 26.6663 19.9997 26.6663C20.4599 26.6663 20.833 26.2932 20.833 25.833V20.833H25.833C26.2932 20.833 26.6663 20.4599 26.6663 19.9997C26.6663 19.5394 26.2932 19.1663 25.833 19.1663H20.833V14.1663Z" fill="#4B4B4B"/>
</svg>
