<svg width="340" height="36" viewBox="0 0 340 36" fill="none" xmlns="http://www.w3.org/2000/svg">
<path d="M334.004 13.5565C337.319 13.5565 339.999 10.9132 339.999 7.65299C339.999 4.39279 337.319 1.75 334.004 1.75C330.694 1.75 328.01 4.39279 328.01 7.65299C328.01 10.9132 330.694 13.5565 334.004 13.5565Z" fill="#0B3B2D"/>
<path d="M18.4088 35.9986C15.7422 35.9986 13.2846 35.5876 11.0357 34.7651C8.81889 33.9111 6.87509 32.7092 5.2046 31.1595C3.56608 29.6098 2.2812 27.791 1.34931 25.7035C0.449876 23.616 0 21.3228 0 18.8243C0 16.3257 0.449876 14.0325 1.34931 11.945C2.2812 9.85752 3.58231 8.03885 5.2528 6.48913C6.92329 4.93925 8.88332 3.7533 11.1321 2.93079C13.381 2.07684 15.8548 1.64987 18.5534 1.64987C21.5413 1.64987 24.2238 2.14021 26.6012 3.12057C29.0108 4.1011 31.0348 5.5244 32.6733 7.39048L27.6615 11.945C26.4406 10.68 25.1073 9.74691 23.6616 9.14595C22.2159 8.51339 20.6418 8.19703 18.939 8.19703C17.3005 8.19703 15.8066 8.45002 14.4573 8.95617C13.108 9.46215 11.9351 10.1897 10.9393 11.1384C9.97556 12.0874 9.22056 13.2101 8.67428 14.507C8.16046 15.8039 7.90322 17.2428 7.90322 18.8243C7.90322 20.374 8.16046 21.7973 8.67428 23.0942C9.22056 24.391 9.97556 25.5297 10.9393 26.51C11.9351 27.459 13.0917 28.1865 14.4091 28.6925C15.7584 29.1985 17.2361 29.4516 18.8426 29.4516C20.3847 29.4516 21.8787 29.2143 23.3244 28.7399C24.8021 28.2339 26.2319 27.3956 27.6133 26.2254L32.0469 31.7763C30.2157 33.1362 28.0791 34.1799 25.6376 34.9075C23.228 35.635 20.8184 35.9986 18.4088 35.9986ZM24.9147 30.7799V18.3024H32.0469V31.7763L24.9147 30.7799ZM36.8411 35.4294V0.226562H44.3587V35.4294H36.8411ZM61.7451 35.8088C58.9821 35.8088 56.5245 35.2396 54.372 34.1009C52.2516 32.9624 50.5649 31.4127 49.312 29.4516C48.091 27.459 47.4806 25.1975 47.4806 22.6673C47.4806 20.1052 48.091 17.844 49.312 15.8829C50.5649 13.8902 52.2516 12.3405 54.372 11.2334C56.5245 10.0947 58.9821 9.52552 61.7451 9.52552C64.4759 9.52552 66.9178 10.0947 69.0704 11.2334C71.2231 12.3405 72.9085 13.8743 74.1299 15.8353C75.3514 17.7964 75.9613 20.0736 75.9613 22.6673C75.9613 25.1975 75.3514 27.459 74.1299 29.4516C72.9085 31.4127 71.2231 32.9624 69.0704 34.1009C66.9178 35.2396 64.4759 35.8088 61.7451 35.8088ZM61.7451 29.7362C62.9982 29.7362 64.1227 29.4514 65.1186 28.8823C66.1144 28.3129 66.9015 27.5064 67.4799 26.4626C68.0582 25.3873 68.3472 24.122 68.3472 22.6673C68.3472 21.1806 68.0582 19.9155 67.4799 18.8717C66.9015 17.828 66.1144 17.0214 65.1186 16.4521C64.1227 15.8827 62.9982 15.5981 61.7451 15.5981C60.4922 15.5981 59.3677 15.8827 58.3719 16.4521C57.376 17.0214 56.5727 17.828 55.9623 18.8717C55.384 19.9155 55.0948 21.1806 55.0948 22.6673C55.0948 24.122 55.384 25.3873 55.9623 26.4626C56.5727 27.5064 57.376 28.3129 58.3719 28.8823C59.3677 29.4514 60.4922 29.7362 61.7451 29.7362ZM94.3844 35.8088C92.1022 35.8088 90.143 35.3344 88.5051 34.3855C86.8656 33.4368 85.613 31.9975 84.7457 30.0684C83.8784 28.1072 83.4439 25.6401 83.4439 22.6673C83.4439 19.6623 83.8932 17.1953 84.7933 15.266C85.7245 13.3369 87.0099 11.8976 88.6494 10.9487C90.2872 9.9999 92.1989 9.52552 94.3844 9.52552C96.8256 9.52552 99.0094 10.0631 100.937 11.1384C102.897 12.2138 104.439 13.7319 105.564 15.6931C106.72 17.6542 107.299 19.9788 107.299 22.6673C107.299 25.3239 106.72 27.6328 105.564 29.5938C104.439 31.5549 102.897 33.0888 100.937 34.1959C99.0094 35.2711 96.8256 35.8088 94.3844 35.8088ZM79.0583 35.4294V0.226562H86.577V15.0764L86.095 22.6197L86.2393 30.2106V35.4294H79.0583ZM93.0826 29.7362C94.3352 29.7362 95.4435 29.4514 96.4075 28.8823C97.4043 28.3129 98.1913 27.5064 98.7684 26.4626C99.3799 25.3873 99.6849 24.122 99.6849 22.6673C99.6849 21.1806 99.3799 19.9155 98.7684 18.8717C98.1913 17.828 97.4043 17.0214 96.4075 16.4521C95.4435 15.8827 94.3352 15.5981 93.0826 15.5981C91.83 15.5981 90.7053 15.8827 89.7085 16.4521C88.7133 17.0214 87.9264 17.828 87.3476 18.8717C86.7689 19.9155 86.4803 21.1806 86.4803 22.6673C86.4803 24.122 86.7689 25.3873 87.3476 26.4626C87.9264 27.5064 88.7133 28.3129 89.7085 28.8823C90.7053 29.4514 91.83 29.7362 93.0826 29.7362ZM125.882 35.4294V30.4478L125.4 29.3566V20.4374C125.4 18.8558 124.904 17.6222 123.907 16.7368C122.943 15.8513 121.449 15.4084 119.426 15.4084C118.044 15.4084 116.678 15.6297 115.329 16.0725C114.012 16.4837 112.888 17.0531 111.957 17.7806L109.258 12.6093C110.671 11.6288 112.373 10.8698 114.365 10.3319C116.357 9.79431 118.382 9.52552 120.438 9.52552C124.389 9.52552 127.458 10.4428 129.642 12.2772C131.827 14.1115 132.919 16.974 132.919 20.8644V35.4294H125.882ZM117.98 35.8088C115.955 35.8088 114.221 35.4768 112.775 34.8127C111.33 34.1169 110.222 33.1836 109.45 32.0135C108.679 30.8433 108.294 29.5305 108.294 28.0757C108.294 26.5574 108.663 25.2291 109.402 24.0904C110.173 22.9519 111.378 22.0663 113.016 21.4336C114.655 20.7694 116.791 20.4374 119.426 20.4374H126.317V24.7547H120.244C118.477 24.7547 117.257 25.0393 116.582 25.6087C115.939 26.178 115.619 26.8896 115.619 27.7435C115.619 28.6925 115.988 29.4516 116.727 30.0208C117.498 30.5585 118.542 30.8273 119.859 30.8273C121.112 30.8273 122.236 30.5427 123.233 29.9734C124.228 29.3726 124.951 28.5027 125.4 27.364L126.558 30.7799C126.012 32.4245 125.015 33.674 123.571 34.5279C122.125 35.3819 120.261 35.8088 117.98 35.8088ZM137.795 35.4294V0.226562H145.312V35.4294H137.795ZM150.893 35.4294V2.21922H157.349L177.253 26.1305H174.12V2.21922H181.83V35.4294H175.422L155.471 11.518H158.604V35.4294H150.893ZM199.691 35.8088C196.927 35.8088 194.469 35.2396 192.318 34.1009C190.199 32.9624 188.511 31.4127 187.259 29.4516C186.036 27.459 185.428 25.1975 185.428 22.6673C185.428 20.1052 186.036 17.844 187.259 15.8829C188.511 13.8902 190.199 12.3405 192.318 11.2334C194.469 10.0947 196.927 9.52552 199.691 9.52552C202.421 9.52552 204.865 10.0947 207.017 11.2334C209.168 12.3405 210.855 13.8743 212.076 15.8353C213.297 17.7964 213.907 20.0736 213.907 22.6673C213.907 25.1975 213.297 27.459 212.076 29.4516C210.855 31.4127 209.168 32.9624 207.017 34.1009C204.865 35.2396 202.421 35.8088 199.691 35.8088ZM199.691 29.7362C200.944 29.7362 202.07 29.4514 203.065 28.8823C204.059 28.3129 204.847 27.5064 205.426 26.4626C206.005 25.3873 206.294 24.122 206.294 22.6673C206.294 21.1806 206.005 19.9155 205.426 18.8717C204.847 17.828 204.059 17.0214 203.065 16.4521C202.07 15.8827 200.944 15.5981 199.691 15.5981C198.439 15.5981 197.312 15.8827 196.317 16.4521C195.324 17.0214 194.519 17.828 193.909 18.8717C193.33 19.9155 193.041 21.1806 193.041 22.6673C193.041 24.122 193.33 25.3873 193.909 26.4626C194.519 27.5064 195.324 28.3129 196.317 28.8823C197.312 29.4514 198.439 29.7362 199.691 29.7362ZM250.209 9.52552C252.265 9.52552 254.078 9.93669 255.656 10.759C257.259 11.5496 258.512 12.7831 259.413 14.4596C260.343 16.1041 260.812 18.2234 260.812 20.8168V35.4294H253.293V21.9555C253.293 19.8995 252.86 18.3814 251.993 17.401C251.126 16.4206 249.903 15.9303 248.33 15.9303C247.235 15.9303 246.258 16.1835 245.391 16.6893C244.523 17.1638 243.848 17.8914 243.366 18.8717C242.884 19.8521 242.643 21.1016 242.643 22.6197V35.4294H235.126V21.9555C235.126 19.8995 234.691 18.3814 233.824 17.401C232.988 16.4206 231.783 15.9303 230.211 15.9303C229.115 15.9303 228.138 16.1835 227.271 16.6893C226.404 17.1638 225.728 17.8914 225.246 18.8717C224.764 19.8521 224.523 21.1016 224.523 22.6197V35.4294H217.006V9.90493H224.187V16.8791L222.838 14.839C223.736 13.0997 225.005 11.7868 226.645 10.9013C228.314 9.9841 230.211 9.52552 232.33 9.52552C234.706 9.52552 236.778 10.1263 238.547 11.3282C240.344 12.4984 241.535 14.3013 242.113 16.7368L239.462 16.0251C240.33 14.0325 241.712 12.451 243.607 11.2808C245.535 10.1105 247.735 9.52552 250.209 9.52552ZM281.525 35.4294V30.4478L281.043 29.3566V20.4374C281.043 18.8558 280.545 17.6222 279.55 16.7368C278.586 15.8513 277.092 15.4084 275.067 15.4084C273.684 15.4084 272.321 15.6297 270.972 16.0725C269.654 16.4837 268.527 17.0531 267.598 17.7806L264.899 12.6093C266.311 11.6288 268.014 10.8698 270.008 10.3319C271.997 9.79431 274.021 9.52552 276.079 9.52552C280.032 9.52552 283.098 10.4428 285.283 12.2772C287.467 14.1115 288.56 16.974 288.56 20.8644V35.4294H281.525ZM273.621 35.8088C271.598 35.8088 269.864 35.4768 268.418 34.8127C266.971 34.1169 265.863 33.1836 265.093 32.0135C264.32 30.8433 263.935 29.5305 263.935 28.0757C263.935 26.5574 264.304 25.2291 265.043 24.0904C265.814 22.9519 267.019 22.0663 268.659 21.4336C270.296 20.7694 272.431 20.4374 275.067 20.4374H281.958V24.7547H275.887C274.118 24.7547 272.898 25.0393 272.224 25.6087C271.58 26.178 271.26 26.8896 271.26 27.7435C271.26 28.6925 271.629 29.4516 272.369 30.0208C273.139 30.5585 274.184 30.8273 275.502 30.8273C276.754 30.8273 277.876 30.5427 278.874 29.9734C279.869 29.3726 280.592 28.5027 281.043 27.364L282.199 30.7799C281.653 32.4245 280.658 33.674 279.212 34.5279C277.766 35.3819 275.9 35.8088 273.621 35.8088ZM304.755 35.8088C302.314 35.8088 300.116 35.2711 298.153 34.1959C296.196 33.0888 294.636 31.5549 293.479 29.5938C292.356 27.6328 291.792 25.3239 291.792 22.6673C291.792 19.9788 292.356 17.6542 293.479 15.6931C294.636 13.7319 296.196 12.2138 298.153 11.1384C300.116 10.0631 302.314 9.52552 304.755 9.52552C306.941 9.52552 308.853 9.9999 310.49 10.9487C312.128 11.8976 313.399 13.3369 314.297 15.266C315.199 17.1953 315.647 19.6623 315.647 22.6673C315.647 25.6401 315.214 28.1072 314.345 30.0684C313.478 31.9975 312.225 33.4368 310.587 34.3855C308.982 35.3344 307.038 35.8088 304.755 35.8088ZM306.057 29.7362C307.279 29.7362 308.387 29.4514 309.382 28.8823C310.381 28.3129 311.166 27.5064 311.743 26.4626C312.356 25.3873 312.66 24.122 312.66 22.6673C312.66 21.1806 312.356 19.9155 311.743 18.8717C311.166 17.828 310.381 17.0214 309.382 16.4521C308.387 15.8827 307.279 15.5981 306.057 15.5981C304.805 15.5981 303.682 15.8827 302.683 16.4521C301.688 17.0214 300.886 17.828 300.275 18.8717C299.696 19.9155 299.407 21.1806 299.407 22.6673C299.407 24.122 299.696 25.3873 300.275 26.4626C300.886 27.5064 301.688 28.3129 302.683 28.8823C303.682 29.4514 304.805 29.7362 306.057 29.7362ZM312.851 35.4294V30.2106L312.996 22.6197L312.515 15.0764V0.226562H320.032V35.4294H312.851Z" fill="#0B3B2D"/>
</svg>
